<svg xmlns="http://www.w3.org/2000/svg" xmlns:xlink="http://www.w3.org/1999/xlink" width="123" height="123" viewBox="0 0 123 123">
  <defs>
    <clipPath id="clip-path">
      <rect id="Rect치ngulo_401159" data-name="Rect치ngulo 401159" width="123" height="123" transform="translate(-0.333 -0.333)" fill="#3d5756"/>
    </clipPath>
    <clipPath id="clip-path-2">
      <rect id="Rect치ngulo_401724" data-name="Rect치ngulo 401724" width="59.663" height="59.643" fill="#fff"/>
    </clipPath>
  </defs>
  <g id="img2" transform="translate(-385.999 -983)">
    <g id="Grupo_1100011" data-name="Grupo 1100011" transform="translate(231.762 -5135.918)">
      <g id="Grupo_1099585" data-name="Grupo 1099585" transform="translate(154.57 6119.251)">
        <g id="Grupo_1099584" data-name="Grupo 1099584" transform="translate(0 0)" clip-path="url(#clip-path)">
          <path id="Trazado_873472" data-name="Trazado 873472" d="M35.46,26.945l.476.212c-.3.308-.572.55-.8.834s-.42.627-.627.943a.8.8,0,0,0,1.146.117,25.47,25.47,0,0,1,3.062-2.071,13.559,13.559,0,0,0,2.209-1.358c.5-.427,1.142-.589,1.6-1.048a.286.286,0,0,1,.2-.1.939.939,0,0,0,.95-.364c.128-.152.3-.124.458.005.272.223.5.163.746-.084a1.158,1.158,0,0,1,1.446-.252c-.027.415-.027.415-.428.7a1.785,1.785,0,0,0-.346-.147.547.547,0,0,0-.59.7c.08.233.247.167.422.11a12.862,12.862,0,0,1,1.522-.457c.987-.19,1.985-.322,2.978-.479q1.632-.258,3.264-.516a24.659,24.659,0,0,1,3.9-.417c2.755.008,5.509-.025,8.264-.045a1.444,1.444,0,0,0,.563-.05,5.191,5.191,0,0,1,1.821-.232c.19-.015.368-.2.6-.344.216.227.654-.321.918.142-.191.364-.711-.078-.814.461a1.89,1.89,0,0,0,.415.239,9.966,9.966,0,0,0,3.134.5c1.877-.07,3.757-.082,5.636-.091a13.381,13.381,0,0,1,3.31.431c.715.178,1.447.283,2.168.436a2.026,2.026,0,0,1,.518.213c.167.09.313.221.48.313A3.026,3.026,0,0,1,85.3,26.4a1.207,1.207,0,0,0,.8.6,1.248,1.248,0,0,1,.5.25A6.575,6.575,0,0,0,88.225,28.3a6.458,6.458,0,0,1,1.138.731,16.821,16.821,0,0,0,1.747,1.062c.763.415,1.547.79,2.321,1.186a1.124,1.124,0,0,1,.332.219,1.141,1.141,0,0,0,.927.37,1.293,1.293,0,0,1,.98.5,5.976,5.976,0,0,0,.565.464,1.731,1.731,0,0,1,.192.123,32.86,32.86,0,0,0,2.879,2.154.676.676,0,0,0,.648.211c0-.132.01-.26,0-.387-.028-.289-.094-.576-.1-.865a1.3,1.3,0,0,1,1.32-1.37,3.54,3.54,0,0,1,1.982.38,6.153,6.153,0,0,0,1.379.476.875.875,0,0,1,.163.05c.626.359,1.25.722,1.875,1.083.278.16.548.341.838.473A16.168,16.168,0,0,1,109.9,36.87a18.085,18.085,0,0,1,2.917,2.823c.115.127.239.246.363.365a7.473,7.473,0,0,1,1.322,1.8,7.594,7.594,0,0,0,.848,1.156,18.956,18.956,0,0,1,2.276,3.662,15.99,15.99,0,0,1,.856,1.875c.238.671.377,1.378.557,2.071a5.911,5.911,0,0,0,.165.674,8.13,8.13,0,0,1,.342,2.227,1.19,1.19,0,0,1-.015.347c-.078.388-.371.51-.671.265a1.707,1.707,0,0,1-.365-.44c-.358-.591-.687-1.2-1.052-1.786a25.175,25.175,0,0,0-1.889-2.813c-.842-1.018-1.621-2.09-2.418-3.146-.334-.443-.637-.91-.965-1.358a2.541,2.541,0,0,0-.293-.268,3.569,3.569,0,0,1-.429-.449,3.131,3.131,0,0,0-1.331-1.2c-.183-.076-.3-.326-.434-.511-.14-.2-.257-.418-.348-.568l-.971.183a.862.862,0,0,0,.643.733c.135.04.319.1.372.2a13.432,13.432,0,0,0,1.54,1.92c.562.753,1.177,1.465,1.725,2.227.716,1,1.425,2,2.071,3.042s1.218,2.134,1.8,3.215a.634.634,0,0,1-.054.791c-.055-.005-.114.005-.125-.014a11.176,11.176,0,0,1-1.1-1.588,2.7,2.7,0,0,0-1.311-1.538,8.78,8.78,0,0,1-.893-.563s-.049-.015-.075,0c-.413.283-.565.256-.9-.111-.127-.141-.155-.426-.532-.354a3.35,3.35,0,0,0,.211.564,6.626,6.626,0,0,1,.538.8c.23.564.387,1.158.584,1.737.154.452.334.9.482,1.349a4.992,4.992,0,0,0,.6,1.433,1.625,1.625,0,0,1,.158.493c.075.259.073.259.408.467a.381.381,0,0,0-.094.537,7.46,7.46,0,0,1,.436,1.179q.324.99.624,1.989a6.431,6.431,0,0,1,.2.838,5.911,5.911,0,0,0,.646,2.264,1.273,1.273,0,0,0,.229.33,3.2,3.2,0,0,1,.86,1.791c.212.743.384,1.5.63,2.23.263.783.6,1.542.89,2.315a14.143,14.143,0,0,1,.734,3.456.732.732,0,0,1-.054.453,1.418,1.418,0,0,0-.145,1.06c.087.7-.044.853-.787.932a2.36,2.36,0,0,0-.032.415c.121,1.332.252,2.664.374,4,.046.5.062,1.007.113,1.508a3.047,3.047,0,0,1-.054,1.37,4.354,4.354,0,0,0-.11,1.269.445.445,0,0,0,.361.516c.373.066.477.343.512.672.014.134.013.271.018.407.038.969.108,1.938.1,2.906,0,1.066-.071,2.131-.117,3.2-.017.388-.038.776-.083,1.161-.036.306-.105.607-.169.909a4.709,4.709,0,0,0-.148.62,8.881,8.881,0,0,1-1.1,3.395,2.661,2.661,0,0,0-.2.481,3.137,3.137,0,0,1-.983,1.327c-.325.325-.591.2-.613-.26a.639.639,0,0,0-.319-.574c-.782-.45-.706-1.219-.657-1.94.051-.751.2-1.5.3-2.244a4.54,4.54,0,0,0,0-.549l-.511-.032c-.031-.043-.078-.083-.071-.1a3.62,3.62,0,0,1,.559-1.382,3.725,3.725,0,0,0,.787-1.962,12.117,12.117,0,0,0,.227-2.308,1.093,1.093,0,0,1,.269-.863.542.542,0,0,0,.09-.6,2.71,2.71,0,0,1,.024-1.424,5.474,5.474,0,0,0,.075-2.384l-.674.492a.68.68,0,0,1-.334-.691c0-.5.039-1.006.089-1.506a2.3,2.3,0,0,0-.379-1.757,4.126,4.126,0,0,1-.507-1.342c-.071-.246-.133-.44-.434-.462-.255.186-.189.478-.2.736-.03.834-.008,1.671-.077,2.5-.09,1.08-.2,2.163-.391,3.229-.2,1.161-.58,2.292-.743,3.457-.184,1.314-.663,2.539-.927,3.826a11.887,11.887,0,0,1-.57,1.641c-.271.744-.542,1.489-.827,2.227-.215.558-.432,1.117-.684,1.658-.472,1.02-.951,2.039-1.463,3.039-.463.9-.941,1.8-1.471,2.666-.69,1.127-1.489,2.186-2.147,3.332a32.031,32.031,0,0,0-2.221,4.037,25.936,25.936,0,0,1-1.352,2.476c-.888,1.673-2.085,3.129-3.126,4.694-.169.254-.4.461-.588.706s-.344.5-.513.758a1.46,1.46,0,0,1-.12.194c-.8.853-1.58,1.719-2.4,2.549a19.645,19.645,0,0,1-1.656,1.5,24.74,24.74,0,0,1-2.154,1.584,5.248,5.248,0,0,1-1.591.742,2.416,2.416,0,0,0-1.471.918,1.512,1.512,0,0,1-.312.258L88,126.864l.2-.482a1.724,1.724,0,0,0-.419-.158,1.909,1.909,0,0,1-.975-.433c-.431-.322-.425-.7.065-.967.367-.2.763-.342,1.144-.513a2.117,2.117,0,0,0,1.122-.91,7.046,7.046,0,0,0-1.765.514q-1.1.394-2.189.8-2.593.958-5.185,1.923-2.166.805-4.331,1.614a7.526,7.526,0,0,0-.746.28,10.32,10.32,0,0,1-3.377.735c-.9.119-1.8.3-2.7.445-.447.072-.9.122-1.347.184l-1.913.268a3.453,3.453,0,0,1-.676.084,15.953,15.953,0,0,0-2.95.2c-.923.112-1.85.2-2.778.248a4.763,4.763,0,0,1-1.171-.157c-1-.207-2.007-.427-3.007-.653-.667-.15-1.328-.332-2-.475a4.6,4.6,0,0,0-1.18-.16,18.8,18.8,0,0,1-2.292-.222,9.224,9.224,0,0,1-3.086-.691,3.582,3.582,0,0,0-1.465-.409,8.056,8.056,0,0,1-1.72-.479,1.924,1.924,0,0,1-.9-.292c-.1-.084-.359,0-.536.045a1.457,1.457,0,0,1-1.635-.58,1.9,1.9,0,0,1-1.233.1.282.282,0,0,1-.177-.137,1.281,1.281,0,0,1-.076-.292.68.68,0,0,1,.255-.031.694.694,0,0,0,.368.075,1.829,1.829,0,0,0-.164-.164,1.177,1.177,0,0,1-.55-.759c-.024-.159-.178-.3-.259-.424-.56.179-.179.9-.757,1.03-.243-.149-.445-.469-.83-.465-.064,0-.222-.3-.181-.373.268-.461-.051-.811-.173-1.2a.413.413,0,0,0-.216-.268,2.191,2.191,0,0,1-.009.48c-.026.115-.115.275-.2.3a.4.4,0,0,1-.319-.162,1.351,1.351,0,0,1-.143-.39l-.8-.385c-.038-.216-.07-.4-.111-.639a.626.626,0,0,1-.789-.1c-.178-.152-.306-.045-.413.21l1.013.365c.013.275.1.6-.284.8a.759.759,0,0,1-.311-.767c-.231-.075-.36-.076-.406.217-.062.4-.17.436-.668.331l.539-.8-.6.136c-.166-.234-.034-.678-.523-.7-.165.117-.341.446-.72.111a6.837,6.837,0,0,1,.432-.555.283.283,0,0,0,.031-.442,1.694,1.694,0,0,1-.149-.543l-.4-.05c.046-.045.17-.114.2-.214.018-.058-.1-.211-.182-.24a3.415,3.415,0,0,0-.659-.141c-.218-.029-.553.3-.451.474.22.38-.056.649-.092.983-.346-.2-.283-.538-.337-.833s-.118-.591.268-.688c-.224-.464-.318-.549-1.035-.966a1.258,1.258,0,0,0-.329.189c-.121.127-.128.258.075.353a2.186,2.186,0,0,1,.383.312l-.592.36-.436-1.259.527.03c0-.112.032-.257,0-.278a2.195,2.195,0,0,1-.729-.767c-.084-.127-.362-.119-.61-.189l.084-.44a.715.715,0,0,1-.77-.517.731.731,0,0,1,.016-.658.662.662,0,0,0-.03-.713c-.315-.527-.658-1.038-1-1.549-.048-.072-.144-.111-.261-.2a1.38,1.38,0,0,0-.19.352,4.883,4.883,0,0,0-.086.808.667.667,0,0,0,.125.364c.2.282.425.54.623.821.432.611.4.873-.157,1.519-.389-.248-.785-.354-1.048.154.144.375.287.73.416,1.09a.623.623,0,0,0,.452.39c.374.127.391.232.17.666a2.966,2.966,0,0,1-.255-.2c-.1-.093-.16-.236-.27-.293a1.536,1.536,0,0,1-.833-1.863c.094-.475-.183-.715-.871-.755a3.1,3.1,0,0,0,.145.356,3.841,3.841,0,0,0,.236.332c-.167.182-.324.186-.461.043a2.166,2.166,0,0,1-.811-1.274c-.035-.34-.223-.421-.759-.423a5.2,5.2,0,0,0-1.514-1.729,47.4,47.4,0,0,1-3.852-3.042c-.669-.706-1.312-1.436-1.959-2.163-.419-.471-.853-.934-1.231-1.439-.678-.9-1.331-1.83-1.972-2.762-.489-.711-.977-1.427-1.408-2.175q-1.019-1.77-1.951-3.591a3.084,3.084,0,0,1-.439-1.547.929.929,0,0,0-.084-.451,20.335,20.335,0,0,1-1.175-3.377,7.125,7.125,0,0,1-.313-.93,14.311,14.311,0,0,1-.124-1.487c0-.051.086-.107.158-.191l2.182,3.9a2.384,2.384,0,0,0,.169-.519c.009-.29-.036-.581-.028-.871.01-.372.178-.482.517-.362.161.057.315.139.478.186.287.083.388.015.434-.272a.813.813,0,0,0,.007-.232c-.159-1.227-.386-2.443-.435-3.687-.037-.945-.242-1.883-.286-2.829-.039-.83.048-1.664.068-2.5.013-.542.018-1.084,0-1.626a4.9,4.9,0,0,0-.65-1.841A18.04,18.04,0,0,1,7.69,78.8c-.149-.468-.148-.561-.465-.832a.659.659,0,0,0-.079.887A1.01,1.01,0,0,1,7.1,80.178a2.479,2.479,0,0,0-.212.432,3.106,3.106,0,0,0,.338.231c.375.19.481.376.37.767a6.874,6.874,0,0,1-.3.715,2.309,2.309,0,0,1-.25-.42c-.187-.669-.36-1.342-.538-2.013a.638.638,0,0,0-.063-.221A2.444,2.444,0,0,1,6.109,78.4a6.264,6.264,0,0,0-.384-1.928,1.876,1.876,0,0,1-.064-.572c-.013-.113,0-.263-.063-.33-.372-.388-.307-.9-.389-1.366-.1-.571-.141-1.155-.185-1.735a.626.626,0,0,0-.317-.573.657.657,0,0,1-.3-.843,1.18,1.18,0,0,1,.064-.283,1.151,1.151,0,0,0-.1-1.2.729.729,0,0,1-.036-.713.638.638,0,0,0,.032-.445,4.163,4.163,0,0,1-.077-1.664c-.006-.735-.025-1.47-.024-2.2a4.508,4.508,0,0,1,.284-2.1,5.122,5.122,0,0,0,.261-1.006,3,3,0,0,1,.115-.3,1.688,1.688,0,0,1,.432.818,17.639,17.639,0,0,1,.681,2.987,7.658,7.658,0,0,1,.073.808c.062.537.139,1.072.2,1.609.067.577.129,1.156.183,1.735a.809.809,0,0,0,.32.711c.181-.59.341-1.2,1.058-1.4.4.318.246.923.53,1.463a1.815,1.815,0,0,0,.223-.46c.093-.865.176-1.732.24-2.6a1.861,1.861,0,0,0-.12-.5,6.576,6.576,0,0,1-.25-1.178c-.043-1.163-.042-2.328-.036-3.492,0-.266.114-.529.133-.8.017-.24.062-.558-.06-.714a2.5,2.5,0,0,1-.4-1.432,7.515,7.515,0,0,1,.055-1.508,2.646,2.646,0,0,1,.429-1.25,5.4,5.4,0,0,0,.292-.627,3.219,3.219,0,0,1,.359-.588.37.37,0,0,1,.337-.1c.091.04.143.2.183.321.021.064-.026.15-.033.227a2.006,2.006,0,0,0,.37,1.486.858.858,0,0,1,.061,1.019,1.249,1.249,0,0,0-.163.545,3.988,3.988,0,0,1-.53,1.753,3.777,3.777,0,0,0-.018,2.373,2.482,2.482,0,0,0,.36-.428,2.6,2.6,0,0,0,.158-.555c.211-1.023.416-2.047.624-3.071.108-.531.213-1.062.329-1.591.255-1.172.489-2.351.783-3.513.221-.875.5-1.735.789-2.591s.6-1.717.918-2.568c.374-.993.711-2.006,1.168-2.959A26.932,26.932,0,0,1,16.274,42.1c.75-1.159,1.537-2.3,2.4-3.376.666-.835,1.469-1.555,2.207-2.33.436-.457.877-.909,1.293-1.385a3.4,3.4,0,0,1,1.345-1.128c.181-.066.315-.271.464-.419.271-.272.527-.56.807-.821.417-.39.68-.313.848.228a1.588,1.588,0,0,0,.089.211c.007.014.03.021.083.055a1.987,1.987,0,0,0,.967-.707,6.4,6.4,0,0,1,3.146-2.179,5.825,5.825,0,0,0,1.358-.82c.326-.22.752-.244,1.029-.572.046-.054.252,0,.364.045a.792.792,0,0,0,.9-.183c.377-.345.718-.732,1.1-1.13l-.344-.405c.526-.245.83-.782,1.438-.93l-.287.706a1.315,1.315,0,0,0-.325.057c-.07.031-.157.123-.157.187a.221.221,0,0,0,.39.116,1.417,1.417,0,0,0,.076-.376m78.11,39.887a1.16,1.16,0,0,0,.247-1.056,12.545,12.545,0,0,0-.505-2.674,1.36,1.36,0,0,1-.023-1.021,1.6,1.6,0,0,0-.149-1.393c-.072-.135-.194-.273-.2-.411a5.529,5.529,0,0,0-.418-1.486,9.156,9.156,0,0,0-.825-1.9c-.347-.62-.729-1.219-1.071-1.841-.3-.55-.537-1.14-.861-1.674-.535-.883-1.116-1.737-1.682-2.6-.221-.337-.444-.672-.683-1a1.464,1.464,0,0,0-.809-.645c.061.211.089.347.139.475.076.2.16.39.254.577.144.287.3.569.45.852a6.757,6.757,0,0,1,.407.755c.218.569.363,1.171.611,1.725.306.683.686,1.333,1.038,1.994a32.416,32.416,0,0,1,2,4.422c.3.855.684,1.684.937,2.552.384,1.316.687,2.656,1.025,3.986.023.089.056.175.118.365M21.8,110.947a1.27,1.27,0,0,0-.471-1.522,3.5,3.5,0,0,1-1.571-1.686,3.951,3.951,0,0,0-.7-.969,4.06,4.06,0,0,0-1.308-1.074,5.24,5.24,0,0,0,.454,1.023c.324.545.692,1.063,1.009,1.613.248.43.4.923.677,1.33a16.083,16.083,0,0,0,1.89,2.521c.555.546,1.023,1.184,1.537,1.775.182.209.384.4.624.65a9.772,9.772,0,0,0-2.139-3.661m92.482-41.663a4.51,4.51,0,0,0-.037.725c.124,1.019.257,2.037.41,3.051a2.13,2.13,0,0,0,.252.541c.553-.407.656-.661.463-1.105a9.826,9.826,0,0,1-.766-2.664.617.617,0,0,0-.323-.548M7.5,76.173c-.041-.835-.076-1.56-.114-2.285a.376.376,0,0,0-.257-.372c-.041.031-.063.038-.07.053a3.292,3.292,0,0,0,.04,2.307c.027.1.213.163.4.3M80.584,24.99a6.982,6.982,0,0,0,1.049.409,2.207,2.207,0,0,1,.888.331.731.731,0,0,0,.916,0,6.334,6.334,0,0,0-.6-.375c-.545-.26-1.187-.2-1.712-.561-.138-.093-.367-.09-.543.2m33.275,36.582A.722.722,0,0,0,114,62.4c.2-.461.189-.522-.138-.826M40.171,125.693c-.339.21-.35.261-.158.671.254-.273.256-.273.158-.671m-10.61-6.416c-.033.46.4.338.513.667.062-.465.055-.473-.513-.667m-4.843-6.044a.548.548,0,0,0,.226.741c.125-.316.137-.546-.226-.741m89.318-45.017c.1-.281.173-.456-.09-.611-.142.21-.115.367.09.611M33.043,122.371c-.068-.3-.126-.5-.47-.446.04.264.157.395.47.446" transform="translate(-2.807 -15.254)" fill="#3d5756"/>
          <path id="Trazado_873473" data-name="Trazado 873473" d="M85.7,14.209c-.141-.011-.255-.015-.368-.028-.566-.062-.8-.361-.716-.944a1.828,1.828,0,0,1,.678-1.176c.589-.482,1.207-.93,1.774-1.437A25.138,25.138,0,0,1,90.236,8.49a13.183,13.183,0,0,1,3.035-1.536,15.775,15.775,0,0,0,1.443-.666,11.23,11.23,0,0,1,1.1-.448c.647-.211,1.3-.393,1.956-.582.219-.063.441-.113.662-.165a.76.76,0,0,1,.331-.056.451.451,0,0,1,.294.217.39.39,0,0,1-.128.335c-.29.214-.6.4-.912.585a11.76,11.76,0,0,1-1.764,1.033c-.466.181-.835.5-1.287.694a6.483,6.483,0,0,0-1.293.823c-.561.422-1.092.887-1.642,1.325a2.022,2.022,0,0,1-.306.141,2.565,2.565,0,0,0-.584.346,23.223,23.223,0,0,1-3.059,2.258c-.291.2-.531.485-.825.684-.486.328-.882.879-1.554.73" transform="translate(-58.09 -3.316)" fill="#3d5756"/>
          <path id="Trazado_873474" data-name="Trazado 873474" d="M344,264.638c-.159-.191-.355-.322-.386-.485a1.445,1.445,0,0,1,.012-.887,9.416,9.416,0,0,0,.952-2.572,22.112,22.112,0,0,1,.847-2.387c.046-.126.119-.244.153-.372a.564.564,0,0,1,.455-.465.625.625,0,0,0,.558-.692c-.017-.458.3-.7.528-.985.16-.2.37-.126.482.128a.758.758,0,0,1-.076.822,2.132,2.132,0,0,0-.4,1.306c-.009.194-.037.387-.035.58a11.627,11.627,0,0,1-.608,3.586c-.2.659-.35,1.334-.529,2-.055.2-.148.4-.189.606a3.265,3.265,0,0,0-.119.906,1.011,1.011,0,0,1-.418,1.054,2.944,2.944,0,0,0-.517.609,2.929,2.929,0,0,1-.32.406.528.528,0,0,1-.932-.326,3.025,3.025,0,0,0-.285-1.049.779.779,0,0,1,.125-.821c.217-.313.446-.617.7-.963" transform="translate(-235.928 -174.088)" fill="#3d5756"/>
          <path id="Trazado_873475" data-name="Trazado 873475" d="M181.629,17.169a.541.541,0,0,1-.419-.573,4.629,4.629,0,0,1,.04-.754,1.525,1.525,0,0,0-.094-.959c-.168-.365-.055-.538.327-.6a25.687,25.687,0,0,1,5.952-.184,5.671,5.671,0,0,0,.615-.018.9.9,0,0,1,.277,0,17.61,17.61,0,0,0,3.1.346,1.467,1.467,0,0,0,.93-.194,1.111,1.111,0,0,1,1.356.587.447.447,0,0,1-.449.584c-.886.008-1.773-.017-2.659.012a9.851,9.851,0,0,0-1.232.188c-.9.146-1.792.338-2.7.417a3.756,3.756,0,0,0-1.067.241,2.452,2.452,0,0,1-.845.069,2.764,2.764,0,0,0-1.275.235,1.713,1.713,0,0,1-.775.148c-.434-.008-.834.014-1.084.457" transform="translate(-124.464 -9.436)" fill="#3d5756"/>
          <path id="Trazado_873476" data-name="Trazado 873476" d="M151.665,6.031l.431-.6a.7.7,0,0,0-.716,0,12.737,12.737,0,0,1-2.881.847.753.753,0,0,1-.886-.75,1.332,1.332,0,0,1,.219-.808,2.632,2.632,0,0,1,1.445-.859c.794-.176,1.58-.392,2.369-.595.2-.052.4-.138.6-.17,1.292-.2,2.583-.41,3.879-.576.561-.072,1.134-.047,1.7-.066a.485.485,0,0,1,.523.307c-.167.38-.5.406-.848.365a.5.5,0,0,0-.511.15A4.74,4.74,0,0,1,154.91,4.5c-.069.027-.14.047-.281.095.658.307,1.234-.062,1.826-.037.133.237.043.394-.165.458a5.178,5.178,0,0,1-.989.226,3.372,3.372,0,0,0-1.241.323,8.565,8.565,0,0,1-1.788.533,2.021,2.021,0,0,1-.607-.069m1.992-1.142c0,.036,0,.072,0,.108l.321-.034-.009-.1-.311.025" transform="translate(-101.44 -1.559)" fill="#3d5756"/>
          <path id="Trazado_873477" data-name="Trazado 873477" d="M200.179,7.777a.673.673,0,0,1-.7.331,4.072,4.072,0,0,0-.509-.018c-.246.021-.443.109-.426.426.01.19-.052.356-.27.373a.428.428,0,0,1-.459-.271c-.059-.133-.13-.26-.234-.464a2.083,2.083,0,0,0-.218.329.412.412,0,0,1-.432.291c-1.307.053-2.612.14-3.918.181a3.206,3.206,0,0,1-1-.165.474.474,0,0,1-.387-.507.88.88,0,0,1,.341-.49,1.3,1.3,0,0,1,.587-.184c.845-.1,1.692-.191,2.539-.275a12.927,12.927,0,0,1,2.834-.1c.468.056.946.015,1.419.038a.941.941,0,0,1,.83.506" transform="translate(-131.717 -4.786)" fill="#3d5756"/>
          <path id="Trazado_873478" data-name="Trazado 873478" d="M75.45,339.147l-1.006-.364c-.266-.1-.53-.2-.8-.291a4.362,4.362,0,0,1-2.153-1.894,4.6,4.6,0,0,1-.426-.751.557.557,0,0,1,.1-.7.759.759,0,0,1,.64-.058,16.526,16.526,0,0,1,2.3,1.1,10.336,10.336,0,0,1,1.328,1.047,2.193,2.193,0,0,1,.643,1.445c.035.3-.191.431-.632.458" transform="translate(-48.73 -228.163)" fill="#3d5756"/>
          <path id="Trazado_873479" data-name="Trazado 873479" d="M2.472,212.943c.03.577.063,1.155.09,1.732.014.284.084.582-.188.851a1.615,1.615,0,0,1-.318-.188c-.513-.485-1.014-.952-.877-1.8a3.2,3.2,0,0,0-.269-1.222,10.13,10.13,0,0,1-.572-2.464c-.007-.709-.184-1.415-.26-2.125a3.808,3.808,0,0,1-.013-1.412c.125.162.227.242.259.345.108.348.174.711.289,1.056.171.511.387,1.006.555,1.518.215.657.4,1.323.61,2.015l.505.091a1.334,1.334,0,0,1-.035.295c-.2.527-.155.64.371.835.214.079.338.22.26.434s-.265.153-.423.059l-.119-.2-.061.06.2.13" transform="translate(0.11 -140.452)" fill="#3d5756"/>
          <path id="Trazado_873480" data-name="Trazado 873480" d="M379.448,144.88a1.7,1.7,0,0,1-.167-.348c-.076-.516-.141-1.034-.209-1.551-.015-.115-.02-.233-.046-.345-.225-1-.465-1.993-.677-2.994-.136-.643-.233-1.294-.342-1.943a1.407,1.407,0,0,1-.005-.29.381.381,0,0,1,.336-.4c.2-.029.315.1.379.281.115.328.233.655.344.984.055.164.09.336.145.5a13.883,13.883,0,0,1,.7,4.684,3.081,3.081,0,0,1-.456,1.426" transform="translate(-259.932 -93.23)" fill="#3d5756"/>
          <path id="Trazado_873481" data-name="Trazado 873481" d="M175.233,370.02c.179-.61.6-.58,1.06-.462.184.047.38.048.557.111.269.1.325.419.082.527a9.961,9.961,0,0,1-1.181.392.3.3,0,0,1-.222-.024c-.683-.449-1.468-.226-2.2-.353a2.178,2.178,0,0,1-.339-.025.852.852,0,0,0-.948.152c-.058.053-.2.008-.408.008l.514-.352c-.18-.129-.355-.2-.438-.329a.847.847,0,0,1-.127-.519c.01-.082.222-.174.353-.2a1.443,1.443,0,0,1,.509.022,6.981,6.981,0,0,1,2.073.563c.228.123.432.291.715.486" transform="translate(-117.928 -251.251)" fill="#3d5756"/>
          <path id="Trazado_873482" data-name="Trazado 873482" d="M213.764,378.688c-.246-.014-.494-.012-.737-.047a.711.711,0,0,1-.617-.594.732.732,0,0,1,.423-.735,3.4,3.4,0,0,1,2.135-.448c.335.031.645.094.765.479a.838.838,0,0,1-.36.9,2.383,2.383,0,0,1-1.609.45" transform="translate(-146.011 -256.639)" fill="#3d5756"/>
          <path id="Trazado_873483" data-name="Trazado 873483" d="M154.381,16.885a1.586,1.586,0,0,1-.2.361c-.089.092-.28.108-.332.208-.339.651-1.008.729-1.574.988-.017.008-.031.028-.048.03A4.006,4.006,0,0,0,151,18.7c-.171.074-.329-.165-.3-.384a.593.593,0,0,1,.556-.561,4.277,4.277,0,0,0,2.367-.834.651.651,0,0,1,.761-.036" transform="translate(-103.56 -11.321)" fill="#3d5756"/>
          <path id="Trazado_873484" data-name="Trazado 873484" d="M224.244,7.568l.305.415h.6l-.1.517.479.293c.021.3-.17.364-.385.4-.521.091-1.042.185-1.564.275-.3.052-.423-.094-.319-.4a2.425,2.425,0,0,1,.191-.352,2.154,2.154,0,0,0,.256-.5,1,1,0,0,1,.53-.644" transform="translate(-153.461 -5.046)" fill="#3d5756"/>
          <path id="Trazado_873485" data-name="Trazado 873485" d="M15.918,214.371a5.09,5.09,0,0,1-.782-2.535c.011-.1.082-.272.129-.273.111,0,.3.052.325.125a5.007,5.007,0,0,1,.513,2.386c-.013.066-.074.121-.186.3" transform="translate(-10.294 -144.031)" fill="#3d5756"/>
          <path id="Trazado_873486" data-name="Trazado 873486" d="M211.075,1.377c-.046.351-.2.427-.415.395a2.007,2.007,0,0,1-.442-.106,1.826,1.826,0,0,0-1.272-.006.968.968,0,0,1-.875-.094c-.107-.073-.284-.035-.427-.061a2.128,2.128,0,0,1-.277-.089.587.587,0,0,1,.044-.1,5.217,5.217,0,0,0,1.515-.252c.074-.009.173-.035.221,0,.424.317.907.158,1.365.2a5.335,5.335,0,0,1,.563.11" transform="translate(-142.548 -0.605)" fill="#3d5756"/>
          <path id="Trazado_873487" data-name="Trazado 873487" d="M233.566,3.86c.355.063.669.115.981.176.092.018.211.032.261.095a.621.621,0,0,1,.178.385.46.46,0,0,1-.283.29.777.777,0,0,1-.431-.046c-.161-.05-.309-.144-.467-.208-.412-.168-.424-.2-.24-.692" transform="translate(-160.493 -2.52)" fill="#3d5756"/>
          <path id="Trazado_873488" data-name="Trazado 873488" d="M370.309,95.424a6.711,6.711,0,0,1-1.063-1.661c.229-.2.434-.148.547.007a8.718,8.718,0,0,1,.686,1.113c.066.127.01.319.01.482l-.18.06" transform="translate(-253.912 -63.683)" fill="#3d5756"/>
          <path id="Trazado_873489" data-name="Trazado 873489" d="M296.326,47.889c-.068-.012-.157,0-.2-.04-.375-.346-.751-.692-1.107-1.057-.176-.18-.315-.4-.029-.669.715.35.9,1.153,1.455,1.628l-.119.138" transform="translate(-202.715 -31.314)" fill="#3d5756"/>
          <path id="Trazado_873490" data-name="Trazado 873490" d="M365.5,124.226c.133.031.31.018.391.1a1.864,1.864,0,0,1,.377.573c.153.37.267.758.389,1.141.013.04-.029.1-.07.222-.413-.7-1.082-1.181-1.078-2.05Z" transform="translate(-251.332 -84.518)" fill="#3d5756"/>
          <path id="Trazado_873491" data-name="Trazado 873491" d="M353.185,111.438a2.357,2.357,0,0,1,.319.3,6.147,6.147,0,0,1,.438.725.39.39,0,0,1,0,.344.351.351,0,0,1-.343.026,1.682,1.682,0,0,1-.622-1.058c-.018-.076.114-.191.211-.341" transform="translate(-242.716 -75.814)" fill="#3d5756"/>
          <path id="Trazado_873492" data-name="Trazado 873492" d="M188.216,2.026a1.725,1.725,0,0,1-.4.025.375.375,0,0,1-.237-.178c-.021-.039.069-.207.121-.214a7.55,7.55,0,0,1,1.12-.08c.081,0,.157.215.236.331a1.28,1.28,0,0,1-.335.146,2.768,2.768,0,0,1-.5-.03" transform="translate(-128.932 -0.965)" fill="#3d5756"/>
          <path id="Trazado_873493" data-name="Trazado 873493" d="M11.594,155.656a7.765,7.765,0,0,1-.174-1,.482.482,0,0,1,.233-.387c.188-.059.283.134.321.313.085.4.166.8-.38,1.079" transform="translate(-7.746 -104.985)" fill="#3d5756"/>
          <path id="Trazado_873494" data-name="Trazado 873494" d="M332.006,293.852c.276.61.169.917-.5,1.3-.026-.131-.092-.257-.058-.341.12-.3.272-.584.42-.869.022-.042.092-.058.141-.087" transform="translate(-227.901 -200.096)" fill="#3d5756"/>
          <path id="Trazado_873495" data-name="Trazado 873495" d="M227.234,3.054c-.435.488-.776.472-1.117-.026.363-.3.709-.218,1.117.026" transform="translate(-155.447 -1.821)" fill="#3d5756"/>
          <path id="Trazado_873496" data-name="Trazado 873496" d="M133.738,20.258c-.583.244-1.171.122-1.746.5a1.333,1.333,0,0,1,1.746-.5" transform="translate(-90.694 -13.597)" fill="#3d5756"/>
          <path id="Trazado_873497" data-name="Trazado 873497" d="M191.978,371.508c-.281.393-.626.41-1.051.049a.626.626,0,0,1,1.051-.049" transform="translate(-131.238 -252.825)" fill="#3d5756"/>
          <path id="Trazado_873498" data-name="Trazado 873498" d="M221.759,2.718c-.331.009-.614-.212-.618-.437a.33.33,0,0,1,.172-.245.539.539,0,0,1,.63.423c0,.1-.145.207-.184.258" transform="translate(-152.024 -1.265)" fill="#3d5756"/>
          <path id="Trazado_873499" data-name="Trazado 873499" d="M13.887,158.716a4.892,4.892,0,0,1,.017.721.425.425,0,0,1-.228.273.3.3,0,0,1-.29-.072.393.393,0,0,1,.016-.313c.1-.221.222-.429.335-.643l.149.033" transform="translate(-9.081 -108.003)" fill="#3d5756"/>
          <path id="Trazado_873500" data-name="Trazado 873500" d="M140.6,1.683c-.164.1-.31.194-.466.269a.231.231,0,0,1-.357-.15A.346.346,0,0,1,140,1.35c.184-.045.333.03.6.333" transform="translate(-96.034 -0.802)" fill="#3d5756"/>
          <path id="Trazado_873501" data-name="Trazado 873501" d="M241.093,6.006a.716.716,0,0,1,.812-.3.306.306,0,0,1,.175.246.311.311,0,0,1-.229.2,5.854,5.854,0,0,1-.758-.154" transform="translate(-165.75 -3.764)" fill="#3d5756"/>
          <path id="Trazado_873502" data-name="Trazado 873502" d="M6.372,190.312c.306.417.3.439-.016.831-.351-.35-.351-.412.016-.831" transform="translate(-4.083 -129.552)" fill="#3d5756"/>
          <path id="Trazado_873503" data-name="Trazado 873503" d="M142.062,25.714c.04.346-.235.417-.4.573-.268-.164-.207-.318-.1-.474a.312.312,0,0,1,.5-.1" transform="translate(-97.214 -17.351)" fill="#3d5756"/>
          <path id="Trazado_873504" data-name="Trazado 873504" d="M5.814,217.981c.488.011.607.166.5.664a.821.821,0,0,1-.5-.664" transform="translate(-3.89 -148.404)" fill="#3d5756"/>
          <path id="Trazado_873505" data-name="Trazado 873505" d="M17.443,241.039c-.358-.419.19-.594.09-.964l.44.179-.53.785" transform="translate(-11.805 -163.457)" fill="#3d5756"/>
          <path id="Trazado_873506" data-name="Trazado 873506" d="M385.491,122.442a.568.568,0,0,1,.223.706.213.213,0,0,1-.159.127.206.206,0,0,1-.167-.112c-.042-.237-.119-.489.1-.72" transform="translate(-264.984 -83.311)" fill="#3d5756"/>
          <path id="Trazado_873507" data-name="Trazado 873507" d="M373.846,100.462a.829.829,0,0,1,.5.556.271.271,0,0,1-.076.242.245.245,0,0,1-.24-.06c-.123-.2-.216-.427-.32-.643l.131-.095" transform="translate(-256.987 -68.336)" fill="#3d5756"/>
          <path id="Trazado_873508" data-name="Trazado 873508" d="M116.127,29.822c.032-.147.017-.359.107-.427.217-.163.448-.046.689.061-.138.348-.462.273-.633.464Z" transform="translate(-79.779 -19.862)" fill="#3d5756"/>
          <path id="Trazado_873509" data-name="Trazado 873509" d="M339.187,284.917a.592.592,0,0,1,.083.666.2.2,0,0,1-.385-.028.522.522,0,0,1,.3-.638" transform="translate(-233.015 -194.008)" fill="#3d5756"/>
          <path id="Trazado_873510" data-name="Trazado 873510" d="M389.493,136.49l-.332.287a1.414,1.414,0,0,1-.237-.39c-.035-.152.062-.34.236-.292.116.032.191.218.333.394" transform="translate(-267.445 -92.609)" fill="#3d5756"/>
          <path id="Trazado_873511" data-name="Trazado 873511" d="M221.36,8.665c-.085.121-.134.264-.207.279a1.151,1.151,0,0,1-.478-.027c-.037-.009-.071-.231-.056-.237a1.7,1.7,0,0,1,.457-.141c.075-.009.16.068.284.127" transform="translate(-151.662 -5.707)" fill="#3d5756"/>
          <path id="Trazado_873512" data-name="Trazado 873512" d="M381.011,112.748c-.221-.262-.521-.477-.486-.889a1.36,1.36,0,0,1,.486.889" transform="translate(-261.67 -76.101)" fill="#3d5756"/>
          <path id="Trazado_873513" data-name="Trazado 873513" d="M357.712,118.506c.358.02.43.215.37.476a.246.246,0,0,1-.2.132c-.2-.025-.258-.233-.168-.608" transform="translate(-245.949 -80.63)" fill="#3d5756"/>
          <path id="Trazado_873514" data-name="Trazado 873514" d="M89.1,332.855a1.656,1.656,0,0,1,.441.268c.041.046-.076.24-.12.367l-.137.01-.268-.553.085-.091" transform="translate(-61.128 -226.669)" fill="#3d5756"/>
          <path id="Trazado_873515" data-name="Trazado 873515" d="M75.61,321.81l.5.25-.246.258-.352-.43.094-.078" transform="translate(-51.841 -219.144)" fill="#3d5756"/>
          <path id="Trazado_873516" data-name="Trazado 873516" d="M147.912,20.175c.145.336.168.524-.041.668a.15.15,0,0,1-.145-.035c-.142-.233.02-.372.187-.633" transform="translate(-101.48 -13.635)" fill="#3d5756"/>
          <path id="Trazado_873517" data-name="Trazado 873517" d="M381.022,170.566c-.076-.2-.152-.295-.136-.374s.121-.158.187-.236c.061.077.178.159.171.229-.01.1-.107.2-.222.381" transform="translate(-261.919 -115.683)" fill="#3d5756"/>
          <path id="Trazado_873518" data-name="Trazado 873518" d="M291.041,36.762c-.127.106-.2.217-.279.22s-.148-.11-.223-.171c.067-.073.125-.188.2-.206s.161.08.3.157" transform="translate(-199.766 -24.828)" fill="#3d5756"/>
          <path id="Trazado_873519" data-name="Trazado 873519" d="M108.73,22.023c.017.264-.028.42-.315.432-.085-.291.068-.367.315-.432" transform="translate(-74.458 -14.894)" fill="#3d5756"/>
          <path id="Trazado_873520" data-name="Trazado 873520" d="M152.172,0c-.166.3-.311.322-.63.2l.63-.2" transform="translate(-104.143 0.11)" fill="#3d5756"/>
          <path id="Trazado_873521" data-name="Trazado 873521" d="M195.992,371.556c-.1.085-.163.178-.227.18s-.146-.079-.22-.123c.062-.078.112-.183.192-.223.038-.019.136.085.255.167" transform="translate(-134.415 -252.921)" fill="#3d5756"/>
          <path id="Trazado_873522" data-name="Trazado 873522" d="M330.054,298.719l-.265.246-.089-.083.224-.282.13.119" transform="translate(-226.707 -203.331)" fill="#3d5756"/>
          <path id="Trazado_873523" data-name="Trazado 873523" d="M386.837,125.975a.393.393,0,0,1,.225.569c-.256-.129-.263-.3-.225-.569" transform="translate(-266.002 -85.719)" fill="#3d5756"/>
          <path id="Trazado_873524" data-name="Trazado 873524" d="M364.949,122.723c-.056-.219-.358-.351-.229-.7a.737.737,0,0,1,.221.708l.008-.011" transform="translate(-250.777 -83.029)" fill="#3d5756"/>
          <path id="Trazado_873525" data-name="Trazado 873525" d="M80.367,334.77c.323.1.4.209.32.378-.021.044-.12.048-.183.07l-.136-.448" transform="translate(-55.178 -227.974)" fill="#3d5756"/>
          <path id="Trazado_873526" data-name="Trazado 873526" d="M384.33,120.312a2.92,2.92,0,0,1,.148.285c0,.011-.107.09-.111.085-.072-.078-.136-.164-.2-.248l.165-.122" transform="translate(-264.176 -81.86)" fill="#3d5756"/>
          <path id="Trazado_873527" data-name="Trazado 873527" d="M176.025,11.59c-.078.025-.137.065-.165.048s-.048-.086-.06-.135c0-.006.069-.049.089-.039a.719.719,0,0,1,.136.126" transform="translate(-120.831 -7.699)" fill="#3d5756"/>
          <path id="Trazado_873528" data-name="Trazado 873528" d="M3.078,204.52a.748.748,0,0,1-.126-.184c-.007-.023.082-.107.094-.1a.359.359,0,0,1,.139.131c.01.018-.052.077-.107.153" transform="translate(-1.92 -139.039)" fill="#3d5756"/>
          <path id="Trazado_873529" data-name="Trazado 873529" d="M100.832,342.249a.814.814,0,0,1-.2.091c-.02,0-.082-.1-.074-.112a.462.462,0,0,1,.16-.118c.013-.005.058.069.115.139" transform="translate(-69.068 -232.975)" fill="#3d5756"/>
          <path id="Trazado_873530" data-name="Trazado 873530" d="M111.105,34.08l-.149-.087c.029-.036.055-.1.089-.1s.093.034.139.054l-.079.135" transform="translate(-76.222 -22.98)" fill="#3d5756"/>
          <path id="Trazado_873531" data-name="Trazado 873531" d="M19,233.586l-.107.13-.122-.13c.037-.033.07-.088.11-.093s.071.052.119.092" transform="translate(-12.801 -158.973)" fill="#3d5756"/>
          <path id="Trazado_873532" data-name="Trazado 873532" d="M198.526,2.444c-.024.024-.048.065-.073.066s-.047-.043-.071-.067c.025-.024.048-.065.074-.066s.046.043.07.067" transform="translate(-136.367 -1.509)" fill="#3d5756"/>
        </g>
      </g>
    </g>
    <g id="Grupo_1100028" data-name="Grupo 1100028" transform="translate(415.337 1014.68)">
      <g id="Grupo_1100027" data-name="Grupo 1100027" clip-path="url(#clip-path-2)">
        <path id="Trazado_873798" data-name="Trazado 873798" d="M49.677,24.138a24.873,24.873,0,0,1-4.8,15.349c-.425.579-.38.891.129,1.328.581.5,1.107,1.067,1.638,1.622a4.344,4.344,0,0,0,2.5,1.626,2.711,2.711,0,0,1,1.445.905c2.631,2.623,5.272,5.238,7.877,7.887a3.965,3.965,0,0,1-3,6.781,3.945,3.945,0,0,1-2.645-1.208q-3.945-3.937-7.874-7.889a2.446,2.446,0,0,1-.762-1.085c-.308-1.725-1.627-2.681-2.733-3.8-1.221-1.239-1.227-1.234-2.615-.285A24.834,24.834,0,1,1,49.182,19.822a20.628,20.628,0,0,1,.495,4.316M24.872,2.092A22.8,22.8,0,1,0,47.693,24.839,22.737,22.737,0,0,0,24.872,2.092M47.715,45.756a1.974,1.974,0,0,0-1.338,3.4q3.863,3.874,7.739,7.735a2.016,2.016,0,0,0,2.914.125,1.982,1.982,0,0,0-.123-2.9C54.362,51.55,51.8,49,49.243,46.444a2.022,2.022,0,0,0-1.527-.688m-4.646-4.013a12.111,12.111,0,0,0-1.149,1.184c-.281.378.2.53.378.743.288.337.622.636.936.95.939.938.917.912,1.934.064.391-.326.454-.506.064-.862-.586-.535-1.126-1.121-1.69-1.68-.13-.129-.28-.238-.473-.4" transform="translate(-0.001 0)" fill="#fff"/>
        <path id="Trazado_873799" data-name="Trazado 873799" d="M62.806,41.924a20.829,20.829,0,1,1-20.867-20.8,20.853,20.853,0,0,1,20.867,20.8m-2-.005A18.848,18.848,0,1,0,41.939,60.782,18.867,18.867,0,0,0,60.8,41.919" transform="translate(-17.083 -17.066)" fill="#fff"/>
        <path id="Trazado_873800" data-name="Trazado 873800" d="M71.034,77.712c-3.233,0-6.467.008-9.7,0A3.878,3.878,0,0,1,57.8,71.746q4.92-8.9,9.935-17.744a3.743,3.743,0,0,1,6.747.018q5.013,8.846,9.933,17.746A3.893,3.893,0,0,1,80.83,77.71c-3.265.009-6.531,0-9.8,0m.075-1.967c3.2,0,6.4.008,9.6,0,1.978-.007,2.841-1.442,1.882-3.162q-4.88-8.75-9.8-17.48c-.916-1.627-2.5-1.611-3.414.016q-4.856,8.654-9.692,17.32c-1.065,1.908-.25,3.3,1.918,3.309q4.751.008,9.5,0" transform="translate(-46.212 -41.917)" fill="#fff"/>
        <path id="Trazado_873801" data-name="Trazado 873801" d="M41.692,76.237a16.714,16.714,0,0,1,4.923-11.35c.512-.519,1.073-.958,1.718-.3s.2,1.2-.31,1.724a14.4,14.4,0,0,0-4.306,10.062c-.017.731-.176,1.412-1.095,1.355s-.942-.792-.93-1.489" transform="translate(-33.677 -51.904)" fill="#fff"/>
        <path id="Trazado_873802" data-name="Trazado 873802" d="M126.247,88.652c0,1.344-.01,2.688,0,4.032.007.715-.129,1.326-1,1.306s-.969-.658-.967-1.357q.012-4.08,0-8.16c0-.724.18-1.322,1.021-1.315.8.006.957.588.951,1.271-.013,1.408,0,2.816,0,4.224" transform="translate(-100.391 -67.174)" fill="#fff"/>
        <path id="Trazado_873803" data-name="Trazado 873803" d="M126.349,151.233a.968.968,0,1,1-.948-.992.9.9,0,0,1,.948.992" transform="translate(-100.5 -121.363)" fill="#fff"/>
      </g>
    </g>
  </g>
</svg>
