<svg xmlns="http://www.w3.org/2000/svg" xmlns:xlink="http://www.w3.org/1999/xlink" width="295" height="229.049" viewBox="0 0 295 229.049">
  <defs>
    <clipPath id="clip-path">
      <rect id="Rectángulo_401747" data-name="Rectángulo 401747" width="263.391" height="229.049" fill="none"/>
    </clipPath>
    <clipPath id="clip-path-5">
      <rect id="Rectángulo_401733" data-name="Rectángulo 401733" width="13.894" height="139.484" fill="none"/>
    </clipPath>
    <clipPath id="clip-path-7">
      <rect id="Rectángulo_401736" data-name="Rectángulo 401736" width="37.912" height="19.325" fill="none"/>
    </clipPath>
    <clipPath id="clip-path-8">
      <rect id="Rectángulo_401737" data-name="Rectángulo 401737" width="48.825" height="24.888" fill="none"/>
    </clipPath>
    <clipPath id="clip-path-9">
      <rect id="Rectángulo_401738" data-name="Rectángulo 401738" width="39.669" height="14.25" fill="none"/>
    </clipPath>
    <clipPath id="clip-path-12">
      <rect id="Rectángulo_401741" data-name="Rectángulo 401741" width="1.56" height="1.556" fill="none"/>
    </clipPath>
    <clipPath id="clip-path-14">
      <rect id="Rectángulo_401743" data-name="Rectángulo 401743" width="23.45" height="2.081" fill="none"/>
    </clipPath>
    <clipPath id="clip-path-15">
      <rect id="Rectángulo_401744" data-name="Rectángulo 401744" width="22.798" height="7.515" fill="none"/>
    </clipPath>
    <clipPath id="clip-path-16">
      <rect id="Rectángulo_401745" data-name="Rectángulo 401745" width="10.367" height="22.267" fill="none"/>
    </clipPath>
  </defs>
  <g id="img9" transform="translate(-285 -1467)">
    <circle id="Elipse_11569" data-name="Elipse 11569" cx="105" cy="105" r="105" transform="translate(285 1479)" fill="#aec2dd"/>
    <g id="Grupo_1100081" data-name="Grupo 1100081">
      <g id="Grupo_1100080" data-name="Grupo 1100080" transform="translate(301 1467)">
        <g id="Grupo_1100079" data-name="Grupo 1100079" clip-path="url(#clip-path)">
          <path id="Trazado_873854" data-name="Trazado 873854" d="M440.4,260.134l7.445,5.308,16.74,4.078,6.637-24.855-24.748-6.546Z" transform="translate(-207.831 -112.372)" fill="#f5f5f5"/>
          <g id="Grupo_1100042" data-name="Grupo 1100042">
            <g id="Grupo_1100041" data-name="Grupo 1100041" clip-path="url(#clip-path)">
              <path id="Trazado_873855" data-name="Trazado 873855" d="M443.634,277.941l-3.234.985a9.828,9.828,0,0,0,2.615,3.047,14.2,14.2,0,0,0,4.83,2.262,9.438,9.438,0,0,1-4.21-6.294" transform="translate(-207.831 -131.165)" fill="#ebebeb"/>
              <path id="Trazado_873856" data-name="Trazado 873856" d="M472.791,259.577c-.011.041-4.233-1.038-9.428-2.41s-9.4-2.517-9.389-2.558,4.231,1.038,9.428,2.41,9.4,2.517,9.389,2.558" transform="translate(-214.237 -120.153)" fill="#e0e0e0"/>
              <path id="Trazado_873857" data-name="Trazado 873857" d="M470.938,265.962c-.012.041-4.233-1.038-9.428-2.41s-9.4-2.517-9.389-2.558,4.232,1.038,9.428,2.41,9.4,2.517,9.389,2.558" transform="translate(-213.362 -123.167)" fill="#e0e0e0"/>
              <path id="Trazado_873858" data-name="Trazado 873858" d="M469.633,271.711c-.011.041-4.233-1.038-9.428-2.409s-9.4-2.517-9.389-2.559,4.232,1.038,9.428,2.41,9.4,2.517,9.389,2.558" transform="translate(-212.747 -125.88)" fill="#e0e0e0"/>
              <path id="Trazado_873859" data-name="Trazado 873859" d="M468.147,277.186c-.011.041-4.233-1.038-9.428-2.409s-9.4-2.517-9.389-2.559,4.231,1.038,9.428,2.41,9.4,2.517,9.389,2.558" transform="translate(-212.046 -128.463)" fill="#e0e0e0"/>
              <path id="Trazado_873860" data-name="Trazado 873860" d="M379.926,16.316,371.9,18.37l-.389,2.457a5.074,5.074,0,0,0,0,1.948,1.566,1.566,0,0,0,1.131,1.21,6.692,6.692,0,0,0,2.332-.168l.158.62-7.559,1.934-.159-.62a3.492,3.492,0,0,0,1.752-1.529,13.923,13.923,0,0,0,1.067-3.925L373.719.081,374.038,0,387,16.542a11.694,11.694,0,0,0,2.781,2.842,2.715,2.715,0,0,0,1.763.192l.159.62-11,2.813-.158-.62.453-.116a3.559,3.559,0,0,0,1.766-.845.925.925,0,0,0,.171-.866,2.112,2.112,0,0,0-.259-.595q-.073-.142-.824-1.128Zm-.887-1.095L373.65,8.26l-1.484,8.72Z" transform="translate(-173.386)" fill="#e0e0e0"/>
              <path id="Trazado_873861" data-name="Trazado 873861" d="M453.538,168.742l-22.992-.674a4.714,4.714,0,0,1-4.573-4.849l.589-20.077a4.713,4.713,0,0,1,4.849-4.573l22.993.674a4.713,4.713,0,0,1,4.573,4.849l-.588,20.077a4.713,4.713,0,0,1-4.849,4.573" transform="translate(-201.022 -65.392)" fill="#ebebeb"/>
              <path id="Trazado_873862" data-name="Trazado 873862" d="M426,169.162l10.948-7.346a2.2,2.2,0,0,1,2.869.109l5.393,2.769,7.7-7.524a2.262,2.262,0,0,1,3.275.279L458.7,160.6l-.121,12.931a3.7,3.7,0,0,1-3.818,3.665l-25.3-.8a3.7,3.7,0,0,1-3.582-3.835Z" transform="translate(-200.977 -73.9)" fill="#e0e0e0"/>
              <path id="Trazado_873863" data-name="Trazado 873863" d="M449.976,150.836a3.241,3.241,0,1,1-3.386-3.09,3.242,3.242,0,0,1,3.386,3.09" transform="translate(-209.293 -69.722)" fill="#e0e0e0"/>
              <path id="Trazado_873864" data-name="Trazado 873864" d="M186.34,359.287a14.11,14.11,0,1,1-18.289-7.926,14.095,14.095,0,0,1,18.289,7.926" transform="translate(-75.082 -165.346)" fill="#f5f5f5"/>
              <path id="Trazado_873865" data-name="Trazado 873865" d="M186.217,363.513a10.753,10.753,0,1,1-13.937-6.04,10.741,10.741,0,0,1,13.937,6.04" transform="translate(-78.083 -168.342)" fill="#ebebeb"/>
              <path id="Trazado_873866" data-name="Trazado 873866" d="M185.845,362.846c-.06.026-.276-.4-.738-1.1a11.418,11.418,0,0,0-2.362-2.612,11.027,11.027,0,0,0-2.041-1.3,10.761,10.761,0,0,0-2.619-.876,10.525,10.525,0,0,0-3.039-.15,10.409,10.409,0,0,0-1.587.277,10.478,10.478,0,0,0-3.039,1.308,10.478,10.478,0,0,0-1.292.963,10.524,10.524,0,0,0-1.979,2.311,10.756,10.756,0,0,0-1.163,2.505,11.014,11.014,0,0,0-.46,2.374,11.424,11.424,0,0,0,.276,3.51,6.3,6.3,0,0,1,.291,1.291,3.155,3.155,0,0,1-.6-1.2,9.944,9.944,0,0,1-.549-3.631,10.777,10.777,0,0,1,1.558-5.245,10.964,10.964,0,0,1,2.091-2.517,10.979,10.979,0,0,1,1.387-1.05,11.038,11.038,0,0,1,3.278-1.412,10.962,10.962,0,0,1,1.715-.286,10.943,10.943,0,0,1,3.266.21,10.768,10.768,0,0,1,4.883,2.471,9.954,9.954,0,0,1,2.261,2.893,3.157,3.157,0,0,1,.462,1.261" transform="translate(-77.837 -167.987)" fill="#e0e0e0"/>
              <path id="Trazado_873867" data-name="Trazado 873867" d="M184.7,376.056l.712,1.733-1.547.635-.692-1.686a7.93,7.93,0,0,1-4.36.345l.076-2.237a6.76,6.76,0,0,0,3.453-.134l-1.061-2.584c-1.889.288-4.042.5-4.951-1.709-.673-1.64-.06-3.537,2.27-4.819l-.706-1.717,1.547-.635.693,1.686a7.572,7.572,0,0,1,3.528-.346l.008,2.221a6.852,6.852,0,0,0-2.7.167l1.08,2.63c1.882-.3,4-.506,4.9,1.675.661,1.609.057,3.484-2.251,4.775m-4.355-6.2-.9-2.2c-.743.522-.883,1.1-.674,1.615.222.541.807.645,1.577.581m4.192,2.636c-.223-.542-.792-.651-1.553-.61l.877,2.135c.7-.487.879-1.03.676-1.525" transform="translate(-83.093 -171.422)" fill="#e0e0e0"/>
            </g>
          </g>
          <g id="Grupo_1100044" data-name="Grupo 1100044">
            <g id="Grupo_1100043" data-name="Grupo 1100043" clip-path="url(#clip-path)">
              <path id="Trazado_873868" data-name="Trazado 873868" d="M254.628,421.214s.285-.011.87-.016l2.67-.015v.061l-127.308.107-92.536-.04-28.042-.044-7.624-.026-1.982-.013c-.447,0-.676-.014-.676-.014s.229-.009.676-.014l1.982-.014,7.624-.026,28.042-.043,92.536-.04,127.308.107v.061l-2.67-.015c-.585-.005-.87-.016-.87-.016" transform="translate(0 -198.713)" fill="#263238"/>
            </g>
          </g>
          <g id="Grupo_1100049" data-name="Grupo 1100049">
            <g id="Grupo_1100048" data-name="Grupo 1100048" clip-path="url(#clip-path)">
              <path id="Trazado_873869" data-name="Trazado 873869" d="M83.432,20.9H56.646a2.27,2.27,0,0,1-2.267-2.378l.543-11.349A2.271,2.271,0,0,1,57.19,5.007H83.976a2.27,2.27,0,0,1,2.268,2.378L85.7,18.734A2.27,2.27,0,0,1,83.432,20.9" transform="translate(-25.661 -2.363)" fill="#fafafa"/>
              <path id="Trazado_873870" data-name="Trazado 873870" d="M83.318,20.773a2.8,2.8,0,0,0,.884-.21,2.26,2.26,0,0,0,1.335-2.056c.1-2.3.243-5.611.42-9.695-.008-1,.33-2.175-.419-3.023a2.136,2.136,0,0,0-1.389-.773c-.55-.042-1.164-.01-1.759-.018L74.7,5.011l-17.622.011A2.145,2.145,0,0,0,55.252,6.05a2.175,2.175,0,0,0-.309,1.029q-.028.574-.055,1.144-.111,2.281-.218,4.491t-.211,4.335q-.026.531-.052,1.056a2.643,2.643,0,0,0,.068.995,2.149,2.149,0,0,0,1.257,1.39,2.345,2.345,0,0,0,.941.157h1l1.953,0,3.733.007,6.7.017,9.7.044,2.638.026.686.013a1.473,1.473,0,0,1,.234.014,1.473,1.473,0,0,1-.234.014L82.4,20.8l-2.638.026-9.7.044-6.7.017-3.733.007-1.953,0h-1a2.6,2.6,0,0,1-1.036-.173,2.4,2.4,0,0,1-1.41-1.553,2.893,2.893,0,0,1-.081-1.08q.025-.525.05-1.056.1-2.124.2-4.335t.213-4.491q.028-.57.055-1.144a2.41,2.41,0,0,1,2.408-2.318L74.7,4.758l7.691.013c.608.012,1.18-.021,1.788.027a2.352,2.352,0,0,1,1.525.858,2.387,2.387,0,0,1,.528,1.6q-.04.8-.079,1.571c-.214,4.081-.387,7.388-.508,9.69a2.333,2.333,0,0,1-.522,1.431,2.279,2.279,0,0,1-.9.67,2.306,2.306,0,0,1-.671.161c-.156,0-.235,0-.235,0" transform="translate(-25.546 -2.24)" fill="#263238"/>
              <path id="Trazado_873871" data-name="Trazado 873871" d="M267.2,26.322l1.146-7.172,4.886-2.838,4.011,4.3-1.209,7.355Z" transform="translate(-126.096 -7.698)" fill="#c2e8e8"/>
              <path id="Trazado_873872" data-name="Trazado 873872" d="M214.151,41.254l-5.929,130.13-95.61-2.717-5.689-9.936L117.207,37.79l88.979-5.89Z" transform="translate(-50.459 -15.054)" fill="#e0e0e0"/>
              <g id="Grupo_1100047" data-name="Grupo 1100047" transform="translate(149.798 16.846)" opacity="0.3">
                <g id="Grupo_1100046" data-name="Grupo 1100046">
                  <g id="Grupo_1100045" data-name="Grupo 1100045" clip-path="url(#clip-path-5)">
                    <path id="Trazado_873873" data-name="Trazado 873873" d="M291.628,171.385l-7.966-9.354L289.591,31.9l7.966,9.353Z" transform="translate(-283.662 -31.901)"/>
                  </g>
                </g>
              </g>
              <path id="Trazado_873874" data-name="Trazado 873874" d="M206.186,30.725l-5.929,130.13-93.333-3.3,7.06-128.146Z" transform="translate(-50.459 -13.878)" fill="#fafafa"/>
              <path id="Trazado_873875" data-name="Trazado 873875" d="M206.056,30.624l-92.2-1.2.113-.105c-1.966,35.81-4.4,80.167-7.034,128.148l-.133-.145,1.541.054,91.791,3.258-.129.119c3.576-76.85,6-129.014,6.054-130.124-.05,1.11-2.376,53.28-5.8,130.136l-.005.124-.124,0-91.793-3.233-1.54-.054-.14-.005.008-.14c2.653-47.979,5.106-92.335,7.086-128.145l.006-.107.107,0,92.2,1.427" transform="translate(-50.329 -13.778)" fill="#263238"/>
              <path id="Trazado_873876" data-name="Trazado 873876" d="M139.56,85.521l32.594.956a1.24,1.24,0,0,0,1.275-1.2l.036-1.221a1.239,1.239,0,0,0-1.2-1.275l-32.593-.955a1.239,1.239,0,0,0-1.275,1.2l-.036,1.221a1.239,1.239,0,0,0,1.2,1.275" transform="translate(-65.293 -38.613)" fill="#e0e0e0"/>
              <path id="Trazado_873877" data-name="Trazado 873877" d="M138.965,99.067l32.593.956a1.24,1.24,0,0,0,1.275-1.2l.036-1.221a1.239,1.239,0,0,0-1.2-1.275l-32.594-.955a1.239,1.239,0,0,0-1.275,1.2l-.036,1.221a1.239,1.239,0,0,0,1.2,1.275" transform="translate(-65.012 -45.005)" fill="#e0e0e0"/>
              <path id="Trazado_873878" data-name="Trazado 873878" d="M138.37,112.613l32.594.956a1.239,1.239,0,0,0,1.275-1.2l.036-1.221a1.239,1.239,0,0,0-1.2-1.275l-32.593-.955a1.239,1.239,0,0,0-1.275,1.2l-.036,1.221a1.239,1.239,0,0,0,1.2,1.275" transform="translate(-64.731 -51.398)" fill="#e0e0e0"/>
              <path id="Trazado_873879" data-name="Trazado 873879" d="M137.775,126.158l32.594.956a1.24,1.24,0,0,0,1.275-1.2l.036-1.221a1.239,1.239,0,0,0-1.2-1.276l-32.594-.955a1.238,1.238,0,0,0-1.275,1.2l-.036,1.221a1.239,1.239,0,0,0,1.2,1.275" transform="translate(-64.45 -57.79)" fill="#e0e0e0"/>
              <path id="Trazado_873880" data-name="Trazado 873880" d="M137.18,139.7l32.594.956a1.239,1.239,0,0,0,1.275-1.2l.036-1.221a1.239,1.239,0,0,0-1.2-1.275L137.288,136a1.239,1.239,0,0,0-1.275,1.2l-.036,1.221a1.239,1.239,0,0,0,1.2,1.275" transform="translate(-64.17 -64.182)" fill="#e0e0e0"/>
              <path id="Trazado_873881" data-name="Trazado 873881" d="M136.585,153.25l32.593.956a1.24,1.24,0,0,0,1.275-1.2l.036-1.221a1.239,1.239,0,0,0-1.2-1.275l-32.594-.955a1.239,1.239,0,0,0-1.275,1.2l-.036,1.221a1.239,1.239,0,0,0,1.2,1.275" transform="translate(-63.889 -70.575)" fill="#e0e0e0"/>
              <path id="Trazado_873882" data-name="Trazado 873882" d="M135.99,166.8l32.594.956a1.24,1.24,0,0,0,1.275-1.2l.036-1.221a1.239,1.239,0,0,0-1.2-1.275L136.1,163.1a1.239,1.239,0,0,0-1.275,1.2l-.036,1.221a1.239,1.239,0,0,0,1.2,1.275" transform="translate(-63.608 -76.967)" fill="#e0e0e0"/>
              <path id="Trazado_873883" data-name="Trazado 873883" d="M209.787,155.276l32.594.956a1.24,1.24,0,0,0,1.275-1.2l.036-1.221a1.239,1.239,0,0,0-1.2-1.275l-32.594-.955a1.239,1.239,0,0,0-1.275,1.2L208.585,154a1.239,1.239,0,0,0,1.2,1.275" transform="translate(-98.434 -71.531)" fill="#e0e0e0"/>
              <path id="Trazado_873884" data-name="Trazado 873884" d="M209.192,168.822l32.593.956a1.24,1.24,0,0,0,1.275-1.2l.036-1.221a1.239,1.239,0,0,0-1.2-1.275l-32.594-.955a1.239,1.239,0,0,0-1.275,1.2l-.036,1.221a1.239,1.239,0,0,0,1.2,1.275" transform="translate(-98.153 -77.924)" fill="#e0e0e0"/>
              <path id="Trazado_873885" data-name="Trazado 873885" d="M208.474,183.106l32.593.955a1.239,1.239,0,0,0,1.275-1.2l.036-1.221a1.239,1.239,0,0,0-1.2-1.275l-32.594-.955a1.239,1.239,0,0,0-1.275,1.2l-.036,1.221a1.239,1.239,0,0,0,1.2,1.275" transform="translate(-97.814 -84.664)" fill="#e0e0e0"/>
              <path id="Trazado_873886" data-name="Trazado 873886" d="M207.756,197.391l32.593.955a1.239,1.239,0,0,0,1.275-1.2l.036-1.221a1.24,1.24,0,0,0-1.2-1.275l-32.594-.955a1.239,1.239,0,0,0-1.275,1.2l-.036,1.221a1.239,1.239,0,0,0,1.2,1.275" transform="translate(-97.475 -91.406)" fill="#e0e0e0"/>
              <path id="Trazado_873887" data-name="Trazado 873887" d="M207.038,211.675l32.594.956a1.239,1.239,0,0,0,1.275-1.2l.036-1.221a1.239,1.239,0,0,0-1.2-1.275l-32.593-.955a1.24,1.24,0,0,0-1.275,1.2l-.036,1.221a1.239,1.239,0,0,0,1.2,1.275" transform="translate(-97.137 -98.147)" fill="#e0e0e0"/>
              <path id="Trazado_873888" data-name="Trazado 873888" d="M206.319,225.959l32.593.955a1.239,1.239,0,0,0,1.275-1.2l.036-1.221a1.24,1.24,0,0,0-1.2-1.275l-32.593-.955a1.24,1.24,0,0,0-1.275,1.2l-.036,1.221a1.239,1.239,0,0,0,1.2,1.275" transform="translate(-96.797 -104.887)" fill="#e0e0e0"/>
              <path id="Trazado_873889" data-name="Trazado 873889" d="M205.6,240.243l32.594.955a1.239,1.239,0,0,0,1.275-1.2l.036-1.221a1.24,1.24,0,0,0-1.2-1.275l-32.594-.955a1.239,1.239,0,0,0-1.275,1.2l-.036,1.221a1.239,1.239,0,0,0,1.2,1.275" transform="translate(-96.458 -111.628)" fill="#e0e0e0"/>
              <path id="Trazado_873890" data-name="Trazado 873890" d="M129.93,250.892,201.865,253a1.24,1.24,0,0,0,1.275-1.2l.036-1.221a1.24,1.24,0,0,0-1.2-1.275l-71.934-2.109a1.239,1.239,0,0,0-1.275,1.2l-.036,1.221a1.239,1.239,0,0,0,1.2,1.275" transform="translate(-60.748 -116.654)" fill="#e0e0e0"/>
              <path id="Trazado_873891" data-name="Trazado 873891" d="M140.627,67.883l21.98.644a1.239,1.239,0,0,0,1.275-1.2l.036-1.221a1.239,1.239,0,0,0-1.2-1.275l-21.98-.644a1.239,1.239,0,0,0-1.275,1.2l-.036,1.221a1.239,1.239,0,0,0,1.2,1.275" transform="translate(-65.796 -30.289)" fill="#e0e0e0"/>
              <path id="Trazado_873892" data-name="Trazado 873892" d="M116.689,170.482s.154.014.454.028l1.338.057,5.164.2,19.167.676,64.747,2.187.139,0,.006-.138c.245-5.146.5-10.542.762-16.034,1.381-29.513,2.633-56.228,3.538-75.572.439-9.666.794-17.489,1.04-22.9.116-2.7.207-4.8.268-6.228q.041-1.061.063-1.62c.012-.365.012-.552.012-.552s-.019.186-.041.551-.051.912-.091,1.619c-.074,1.43-.182,3.527-.322,6.225-.267,5.413-.653,13.234-1.13,22.9-.927,19.343-2.207,46.056-3.622,75.567-.26,5.493-.515,10.888-.758,16.035l.145-.134-64.75-2.092-19.17-.59-5.166-.146-1.338-.032c-.3-.005-.455,0-.455,0" transform="translate(-55.067 -23.871)" fill="#263238"/>
              <path id="Trazado_873893" data-name="Trazado 873893" d="M131.049,176.322s.145.014.429.029l1.262.058,4.878.2,18.136.693,61.525,2.257.137.005.007-.138c.327-6.209.669-12.667,1.017-19.266,1.518-29.121,2.892-55.481,3.886-74.568.483-9.537.875-17.256,1.145-22.6.128-2.664.229-4.733.3-6.145q.046-1.047.07-1.6c.014-.36.014-.545.014-.545s-.019.184-.043.543-.055.9-.1,1.6c-.081,1.411-.2,3.48-.351,6.142-.292,5.341-.714,13.058-1.235,22.594-1.016,19.086-2.419,45.444-3.97,74.563-.347,6.6-.686,13.057-1.012,19.266l.145-.132-61.529-2.16-18.139-.609-4.879-.151-1.263-.033c-.285-.006-.43,0-.43,0" transform="translate(-61.844 -25.816)" fill="#263238"/>
              <path id="Trazado_873894" data-name="Trazado 873894" d="M189.573,27.52l1.409-1.379,16.808.082.814,1.537Z" transform="translate(-89.462 -12.336)" fill="#263238"/>
              <rect id="Rectángulo_401734" data-name="Rectángulo 401734" width="8.009" height="19.033" transform="translate(100.01 23.192) rotate(-89.278)" fill="#263238"/>
              <path id="Trazado_873895" data-name="Trazado 873895" d="M208.447,43.817l0-.276a.662.662,0,0,0-.653-.67l-19.03-.24a.661.661,0,0,0-.67.653l0,.276a.662.662,0,0,0,.653.67l19.03.239a.661.661,0,0,0,.67-.653" transform="translate(-88.764 -20.119)" fill="#263238"/>
              <path id="Trazado_873896" data-name="Trazado 873896" d="M207.248,26.6h-.01l-8.371-.106a.738.738,0,0,1-.683-.995l2.465-6.63a4.37,4.37,0,0,1,2.493-7.876,4.37,4.37,0,0,1,2.606,7.96l2.2,6.678a.738.738,0,0,1-.7.969m-3.99-15.081c-.034,0-.068,0-.1,0a3.9,3.9,0,0,0-3.741,3.9,3.847,3.847,0,0,0,1.7,3.133l.173.116-2.609,7.015a.208.208,0,0,0,.023.192.205.205,0,0,0,.171.091l8.371.106a.2.2,0,0,0,.172-.085.211.211,0,0,0,.031-.191l-2.329-7.066.175-.11a3.842,3.842,0,0,0-2.035-7.1" transform="translate(-93.505 -5.187)" fill="#455a64"/>
              <path id="Trazado_873897" data-name="Trazado 873897" d="M208.386,42.855a.925.925,0,0,0-.192-.011l-.546-.014-2.012-.042L199,42.68l-6.641-.074-2.013-.006-.548.006a.906.906,0,0,0-.191.013.889.889,0,0,0,.191.018l.547.023,2.012.055c1.7.04,4.046.084,6.64.12s4.94.059,6.64.063c.85,0,1.538,0,2.013-.008.238-.005.422-.007.549-.015a.863.863,0,0,0,.19-.021" transform="translate(-89.477 -20.103)" fill="#455a64"/>
              <path id="Trazado_873898" data-name="Trazado 873898" d="M208.9,28.668a.93.93,0,0,0-.192-.011l-.546-.014-2.012-.042-6.639-.108-6.641-.074-2.013-.006-.547.006a.905.905,0,0,0-.191.013.89.89,0,0,0,.191.018l.547.023,2.012.056c1.7.04,4.046.083,6.64.12s4.94.059,6.64.063c.85,0,1.538,0,2.013-.008.238-.005.422-.007.548-.015a.865.865,0,0,0,.19-.021" transform="translate(-89.721 -13.408)" fill="#455a64"/>
              <path id="Trazado_873899" data-name="Trazado 873899" d="M161.19,210.592l-22.992-.674a4.714,4.714,0,0,1-4.573-4.849l.589-20.077a4.712,4.712,0,0,1,4.849-4.573l22.993.674a4.713,4.713,0,0,1,4.573,4.849l-.588,20.077a4.713,4.713,0,0,1-4.849,4.573" transform="translate(-63.058 -85.142)" fill="#ebebeb"/>
              <path id="Trazado_873900" data-name="Trazado 873900" d="M133.665,211.416a.792.792,0,0,1,.35-.628l10.612-7.121a2.2,2.2,0,0,1,2.805.051.714.714,0,0,0,.14.1l4.809,2.469a.792.792,0,0,0,.916-.138l7.287-7.125a2.262,2.262,0,0,1,3.275.279l2.338,2.935a.792.792,0,0,1,.172.5l-.111,11.856a4.477,4.477,0,0,1-4.619,4.433l-23.724-.75a4.478,4.478,0,0,1-4.333-4.64Z" transform="translate(-63.039 -93.65)" fill="#e0e0e0"/>
              <path id="Trazado_873901" data-name="Trazado 873901" d="M157.627,192.685a3.241,3.241,0,1,1-3.386-3.09,3.242,3.242,0,0,1,3.386,3.09" transform="translate(-71.329 -89.471)" fill="#e0e0e0"/>
              <path id="Trazado_873902" data-name="Trazado 873902" d="M240.511,116.01l-22.992-.674a4.714,4.714,0,0,1-4.573-4.849l.589-20.077a4.712,4.712,0,0,1,4.849-4.573l22.993.674a4.713,4.713,0,0,1,4.573,4.849l-.588,20.077a4.713,4.713,0,0,1-4.849,4.573" transform="translate(-100.491 -40.507)" fill="#ebebeb"/>
              <path id="Trazado_873903" data-name="Trazado 873903" d="M213.025,116.43l10.948-7.346a2.2,2.2,0,0,1,2.869.109l5.393,2.769,7.7-7.524a2.262,2.262,0,0,1,3.275.279l2.513,3.155-.106,11.35a5.247,5.247,0,0,1-5.413,5.2l-22.164-.7a5.247,5.247,0,0,1-5.078-5.437Z" transform="translate(-100.496 -49.015)" fill="#e0e0e0"/>
              <path id="Trazado_873904" data-name="Trazado 873904" d="M236.948,98.1a3.241,3.241,0,1,1-3.386-3.09,3.242,3.242,0,0,1,3.386,3.09" transform="translate(-108.762 -44.837)" fill="#e0e0e0"/>
              <path id="Trazado_873905" data-name="Trazado 873905" d="M141.372,112.1a1.389,1.389,0,0,1-.426-.119,2.347,2.347,0,0,1-.967-.817,2.748,2.748,0,0,1-.472-1.938,3.856,3.856,0,0,1,1.282-2.314,6.73,6.73,0,0,1,2.887-1.419,15.874,15.874,0,0,1,3.661-.473,16.131,16.131,0,0,1,8.128,2.062,5.94,5.94,0,0,1,1.723,1.445,3.586,3.586,0,0,1,.773,2.055,2.743,2.743,0,0,1-.772,1.973,4.532,4.532,0,0,1-1.717,1.077,11.632,11.632,0,0,1-3.647.589,20.766,20.766,0,0,1-3.209-.138,20.094,20.094,0,0,1-4.51-1.088c-.514-.19-.906-.356-1.167-.48a2.505,2.505,0,0,1-.392-.2,2.709,2.709,0,0,1,.414.148c.267.107.664.256,1.181.43a21.467,21.467,0,0,0,4.5,1,21.075,21.075,0,0,0,3.177.1,11.535,11.535,0,0,0,3.566-.6,4.293,4.293,0,0,0,1.615-1.02,2.481,2.481,0,0,0,.694-1.786,3.323,3.323,0,0,0-.721-1.895,5.685,5.685,0,0,0-1.645-1.376,16.026,16.026,0,0,0-7.987-2.045,15.837,15.837,0,0,0-3.607.44,6.578,6.578,0,0,0-2.814,1.343,3.713,3.713,0,0,0-1.26,2.19,2.656,2.656,0,0,0,.408,1.857,2.4,2.4,0,0,0,.9.826c.256.126.407.154.4.169" transform="translate(-65.824 -49.559)" fill="#263238"/>
              <path id="Trazado_873906" data-name="Trazado 873906" d="M167.219,251.793a1.389,1.389,0,0,1-.426-.119,2.347,2.347,0,0,1-.967-.817,2.748,2.748,0,0,1-.472-1.938,3.856,3.856,0,0,1,1.282-2.314,6.73,6.73,0,0,1,2.887-1.419,15.876,15.876,0,0,1,3.661-.473,16.129,16.129,0,0,1,8.128,2.062,5.948,5.948,0,0,1,1.723,1.445,3.586,3.586,0,0,1,.773,2.055,2.741,2.741,0,0,1-.772,1.973,4.532,4.532,0,0,1-1.717,1.077,11.631,11.631,0,0,1-3.647.589,20.714,20.714,0,0,1-3.209-.138,20.092,20.092,0,0,1-4.509-1.088c-.515-.19-.907-.356-1.168-.48a2.508,2.508,0,0,1-.392-.2,2.709,2.709,0,0,1,.414.148c.267.107.664.256,1.181.43a21.469,21.469,0,0,0,4.5,1,21.076,21.076,0,0,0,3.178.1,11.549,11.549,0,0,0,3.566-.6,4.29,4.29,0,0,0,1.615-1.02,2.481,2.481,0,0,0,.694-1.786,3.324,3.324,0,0,0-.721-1.895,5.679,5.679,0,0,0-1.645-1.376,16.024,16.024,0,0,0-7.986-2.045,15.839,15.839,0,0,0-3.607.44,6.581,6.581,0,0,0-2.814,1.343,3.715,3.715,0,0,0-1.259,2.19,2.656,2.656,0,0,0,.408,1.857,2.4,2.4,0,0,0,.9.826c.256.126.407.154.4.169" transform="translate(-78.021 -115.483)" fill="#263238"/>
              <path id="Trazado_873907" data-name="Trazado 873907" d="M137.217,66.348a1.389,1.389,0,0,1-.426-.119,2.344,2.344,0,0,1-.967-.817,2.748,2.748,0,0,1-.472-1.938,3.856,3.856,0,0,1,1.282-2.314,6.73,6.73,0,0,1,2.887-1.419,15.874,15.874,0,0,1,3.661-.473,16.129,16.129,0,0,1,8.128,2.062,5.947,5.947,0,0,1,1.723,1.445,3.589,3.589,0,0,1,.773,2.055,2.743,2.743,0,0,1-.772,1.973,4.536,4.536,0,0,1-1.717,1.077,11.631,11.631,0,0,1-3.647.589,20.775,20.775,0,0,1-3.209-.138,20.1,20.1,0,0,1-4.509-1.088c-.514-.19-.906-.356-1.167-.48a2.569,2.569,0,0,1-.392-.2,2.709,2.709,0,0,1,.414.148c.267.107.664.256,1.181.43a21.467,21.467,0,0,0,4.5,1,21.075,21.075,0,0,0,3.177.1,11.534,11.534,0,0,0,3.566-.6,4.293,4.293,0,0,0,1.615-1.02,2.481,2.481,0,0,0,.694-1.786,3.323,3.323,0,0,0-.721-1.895,5.677,5.677,0,0,0-1.645-1.376,16.025,16.025,0,0,0-7.986-2.045,15.839,15.839,0,0,0-3.607.44,6.578,6.578,0,0,0-2.814,1.343,3.716,3.716,0,0,0-1.259,2.19,2.657,2.657,0,0,0,.408,1.857,2.4,2.4,0,0,0,.9.826c.256.126.407.154.4.169" transform="translate(-63.863 -27.969)" fill="#263238"/>
              <path id="Trazado_873908" data-name="Trazado 873908" d="M291.944,212.986l7.261.181,3.464,4.464-3.728,4.548-7.451-.219Z" transform="translate(-137.558 -100.511)" fill="#c2e8e8"/>
              <path id="Trazado_873909" data-name="Trazado 873909" d="M293.247,188.868l7.261.181,3.464,4.464-3.728,4.548-7.451-.219Z" transform="translate(-138.173 -89.13)" fill="#455a64"/>
              <path id="Trazado_873910" data-name="Trazado 873910" d="M85.528,15.463H62.56a.273.273,0,0,0-.272.273v.114a.273.273,0,0,0,.272.273H85.528a.273.273,0,0,0,.272-.273v-.114a.273.273,0,0,0-.272-.273" transform="translate(-29.395 -7.297)" fill="#e0e0e0"/>
              <path id="Trazado_873911" data-name="Trazado 873911" d="M85.528,19.426H62.56a.273.273,0,0,0-.272.274v.114a.273.273,0,0,0,.272.273H85.528a.273.273,0,0,0,.272-.273V19.7a.273.273,0,0,0-.272-.274" transform="translate(-29.395 -9.167)" fill="#e0e0e0"/>
              <path id="Trazado_873912" data-name="Trazado 873912" d="M85.528,23.39H62.56a.272.272,0,0,0-.272.272v.114a.273.273,0,0,0,.272.273H85.528a.273.273,0,0,0,.272-.273v-.114a.272.272,0,0,0-.272-.272" transform="translate(-29.395 -11.038)" fill="#e0e0e0"/>
              <path id="Trazado_873913" data-name="Trazado 873913" d="M114.839,19.161c.061-.046,3.715,4.686,8.162,10.568s8,10.689,7.943,10.735-3.715-4.685-8.163-10.569-8-10.688-7.942-10.734" transform="translate(-54.194 -9.042)" fill="#263238"/>
              <path id="Trazado_873914" data-name="Trazado 873914" d="M114.679,17.558a.894.894,0,1,1-.895-.895.895.895,0,0,1,.895.895" transform="translate(-53.275 -7.864)" fill="#263238"/>
              <path id="Trazado_873915" data-name="Trazado 873915" d="M135.728,347.382H108.942A2.27,2.27,0,0,1,106.675,345l.543-11.349a2.271,2.271,0,0,1,2.268-2.161h26.786a2.27,2.27,0,0,1,2.268,2.378L138,345.221a2.27,2.27,0,0,1-2.268,2.161" transform="translate(-50.34 -156.437)" fill="#fafafa"/>
              <path id="Trazado_873916" data-name="Trazado 873916" d="M135.614,347.26a2.8,2.8,0,0,0,.884-.21,2.26,2.26,0,0,0,1.335-2.056c.1-2.3.243-5.611.42-9.695-.008-1,.33-2.174-.419-3.023a2.139,2.139,0,0,0-1.389-.774c-.55-.041-1.164-.009-1.759-.017l-7.691.013-17.622.011a2.145,2.145,0,0,0-1.825,1.028,2.176,2.176,0,0,0-.309,1.029q-.028.574-.055,1.144-.11,2.281-.218,4.491t-.211,4.334q-.026.532-.052,1.057a2.643,2.643,0,0,0,.068.995,2.149,2.149,0,0,0,1.257,1.39,2.353,2.353,0,0,0,.941.157h1l1.953,0,3.733.007,6.7.017,9.7.044,2.638.025.686.014a.117.117,0,1,1,0,.029l-.686.013-2.638.026-9.7.044-6.7.017-3.733.007-1.953,0h-1a2.6,2.6,0,0,1-1.036-.173,2.4,2.4,0,0,1-1.41-1.553,2.891,2.891,0,0,1-.081-1.079q.025-.526.05-1.057.1-2.124.2-4.335t.213-4.491q.028-.57.055-1.144a2.41,2.41,0,0,1,2.408-2.318l17.622.011,7.691.013c.608.012,1.18-.021,1.788.027a2.352,2.352,0,0,1,1.525.858,2.386,2.386,0,0,1,.528,1.6q-.04.8-.079,1.571c-.214,4.081-.387,7.388-.508,9.69a2.334,2.334,0,0,1-.522,1.431,2.252,2.252,0,0,1-1.569.831c-.156,0-.235,0-.235,0" transform="translate(-50.225 -156.314)" fill="#263238"/>
              <path id="Trazado_873917" data-name="Trazado 873917" d="M137.825,341.95H114.857a.273.273,0,0,0-.272.273v.114a.273.273,0,0,0,.272.273h22.967a.273.273,0,0,0,.272-.273v-.114a.273.273,0,0,0-.272-.273" transform="translate(-54.074 -161.371)" fill="#e0e0e0"/>
              <path id="Trazado_873918" data-name="Trazado 873918" d="M137.825,345.914H114.857a.273.273,0,0,0-.272.273v.114a.273.273,0,0,0,.272.273h22.967a.273.273,0,0,0,.272-.273v-.114a.273.273,0,0,0-.272-.273" transform="translate(-54.074 -163.242)" fill="#e0e0e0"/>
              <path id="Trazado_873919" data-name="Trazado 873919" d="M137.825,349.878H114.857a.273.273,0,0,0-.272.273v.114a.273.273,0,0,0,.272.273h22.967a.273.273,0,0,0,.272-.273v-.114a.273.273,0,0,0-.272-.273" transform="translate(-54.074 -165.113)" fill="#e0e0e0"/>
              <path id="Trazado_873920" data-name="Trazado 873920" d="M163.578,261.074c.068.035-4.216,8.389-9.565,18.657s-9.743,18.567-9.81,18.532,4.215-8.387,9.566-18.658,9.742-18.565,9.809-18.53" transform="translate(-68.051 -123.205)" fill="#263238"/>
              <path id="Trazado_873921" data-name="Trazado 873921" d="M144.3,330.7a.895.895,0,1,1-.895-.895.894.894,0,0,1,.895.895" transform="translate(-67.253 -155.638)" fill="#263238"/>
            </g>
          </g>
          <g id="Grupo_1100060" data-name="Grupo 1100060">
            <g id="Grupo_1100059" data-name="Grupo 1100059" clip-path="url(#clip-path)">
              <path id="Trazado_873922" data-name="Trazado 873922" d="M390.061,345.652H312.448v-3.208h77.613a1.327,1.327,0,0,1,1.327,1.327v.554a1.327,1.327,0,0,1-1.327,1.327" transform="translate(-147.449 -161.604)" fill="#c2e8e8"/>
              <path id="Trazado_873923" data-name="Trazado 873923" d="M284.47,345.852c0,.064-6.512.116-14.543.116s-14.544-.052-14.544-.116,6.51-.116,14.544-.116,14.543.052,14.543.116" transform="translate(-120.519 -163.158)" fill="#263238"/>
              <path id="Trazado_873924" data-name="Trazado 873924" d="M290.957,331.249H254.5a7.993,7.993,0,0,1-7.994-7.993v-3.339a7.993,7.993,0,0,1,7.994-7.993h36.456Z" transform="translate(-116.33 -147.202)" fill="#c2e8e8"/>
              <path id="Trazado_873925" data-name="Trazado 873925" d="M390.061,315.132H313.052a.6.6,0,0,1-.6-.6v-2a.6.6,0,0,1,.6-.6h77.009a1.327,1.327,0,0,1,1.327,1.327v.554a1.327,1.327,0,0,1-1.327,1.327" transform="translate(-147.449 -147.202)" fill="#c2e8e8"/>
              <path id="Trazado_873926" data-name="Trazado 873926" d="M391.138,330.908H323.361a6.455,6.455,0,0,1,0-12.909h67.776a15.962,15.962,0,0,0,0,12.909" transform="translate(-149.553 -150.069)" fill="#f5f5f5"/>
              <g id="Grupo_1100052" data-name="Grupo 1100052" transform="translate(130.177 164.722)" opacity="0.3">
                <g id="Grupo_1100051" data-name="Grupo 1100051">
                  <g id="Grupo_1100050" data-name="Grupo 1100050" clip-path="url(#clip-path-7)">
                    <path id="Trazado_873927" data-name="Trazado 873927" d="M283.684,331.249H253.83a7.323,7.323,0,0,1-7.323-7.323v-4.738a7.264,7.264,0,0,1,7.264-7.264h30.648c-7,4.238-6.474,14.389-.736,19.325" transform="translate(-246.508 -311.924)"/>
                  </g>
                </g>
              </g>
              <path id="Trazado_873928" data-name="Trazado 873928" d="M386.349,331.253c0,.064-13.911.116-31.068.116s-31.071-.052-31.071-.116,13.908-.116,31.071-.116,31.068.052,31.068.116" transform="translate(-153 -156.269)" fill="#263238"/>
              <path id="Trazado_873929" data-name="Trazado 873929" d="M398.458,336.686c0,.064-13.911.116-31.068.116s-31.071-.052-31.071-.116,13.909-.116,31.071-.116,31.068.052,31.068.116" transform="translate(-158.714 -158.832)" fill="#263238"/>
              <path id="Trazado_873930" data-name="Trazado 873930" d="M394.888,323.548c0,.064-13.912.116-31.068.116s-31.071-.052-31.071-.116,13.908-.116,31.071-.116,31.068.052,31.068.116" transform="translate(-157.029 -152.632)" fill="#263238"/>
              <path id="Trazado_873931" data-name="Trazado 873931" d="M284.47,314.858c0,.064-6.512.116-14.543.116s-14.544-.052-14.544-.116,6.51-.116,14.544-.116,14.543.052,14.543.116" transform="translate(-120.519 -148.532)" fill="#263238"/>
              <path id="Trazado_873932" data-name="Trazado 873932" d="M268.973,399.1h-42.96A10.294,10.294,0,0,1,215.719,388.8v-4.3a10.294,10.294,0,0,1,10.294-10.294h42.96a3.991,3.991,0,0,1,3.99,3.991v16.907a3.99,3.99,0,0,1-3.99,3.991" transform="translate(-101.801 -176.594)" fill="#c2e8e8"/>
              <path id="Trazado_873933" data-name="Trazado 873933" d="M400.594,378.34H301.626a.986.986,0,0,1-.986-.986v-2.159a.986.986,0,0,1,.986-.986h98.967a1.709,1.709,0,0,1,1.709,1.709v.714a1.709,1.709,0,0,1-1.709,1.709" transform="translate(-141.877 -176.594)" fill="#c2e8e8"/>
              <path id="Trazado_873934" data-name="Trazado 873934" d="M400.594,417.645H301.626a.986.986,0,0,1-.986-.986V414.5a.986.986,0,0,1,.986-.986h98.967a1.709,1.709,0,0,1,1.709,1.709v.714a1.709,1.709,0,0,1-1.709,1.709" transform="translate(-141.877 -195.143)" fill="#c2e8e8"/>
              <path id="Trazado_873935" data-name="Trazado 873935" d="M401.98,398.656H314.695a8.313,8.313,0,0,1,0-16.625H401.98a20.556,20.556,0,0,0,0,16.625" transform="translate(-144.586 -180.286)" fill="#f5f5f5"/>
              <g id="Grupo_1100055" data-name="Grupo 1100055" transform="translate(113.918 197.614)" opacity="0.3">
                <g id="Grupo_1100054" data-name="Grupo 1100054">
                  <g id="Grupo_1100053" data-name="Grupo 1100053" clip-path="url(#clip-path-8)">
                    <path id="Trazado_873936" data-name="Trazado 873936" d="M263.6,399.1H228.03a12.311,12.311,0,0,1-12.31-12.311A12.577,12.577,0,0,1,228.3,374.208h36.248c-9.011,5.459-8.338,18.532-.947,24.888" transform="translate(-215.72 -374.208)"/>
                  </g>
                </g>
              </g>
              <path id="Trazado_873937" data-name="Trazado 873937" d="M395.814,399.131c0,.064-17.916.116-40.011.116s-40.015-.052-40.015-.116,17.912-.116,40.015-.116,40.011.052,40.011.116" transform="translate(-149.025 -188.301)" fill="#263238"/>
              <path id="Trazado_873938" data-name="Trazado 873938" d="M411.408,406.128c0,.064-17.916.116-40.011.116s-40.015-.052-40.015-.116,17.912-.116,40.015-.116,40.011.052,40.011.116" transform="translate(-156.384 -191.603)" fill="#263238"/>
              <path id="Trazado_873939" data-name="Trazado 873939" d="M406.81,392.637c0,.064-17.916.116-40.011.116s-40.015-.052-40.015-.116,17.912-.116,40.015-.116,40.011.052,40.011.116" transform="translate(-154.214 -185.237)" fill="#263238"/>
              <path id="Trazado_873940" data-name="Trazado 873940" d="M264.609,417.931c0,.064-8.386.116-18.729.116s-18.731-.052-18.731-.116,8.384-.116,18.731-.116,18.729.052,18.729.116" transform="translate(-107.196 -197.173)" fill="#263238"/>
              <path id="Trazado_873941" data-name="Trazado 873941" d="M264.609,378.017c0,.064-8.386.116-18.729.116s-18.731-.052-18.731-.116,8.384-.116,18.731-.116,18.729.052,18.729.116" transform="translate(-107.196 -178.337)" fill="#263238"/>
              <path id="Trazado_873942" data-name="Trazado 873942" d="M310.433,361.646H270.092a5.894,5.894,0,0,1-5.894-5.894V353.29a5.894,5.894,0,0,1,5.894-5.894h40.341a.274.274,0,0,1,.274.274v13.7a.274.274,0,0,1-.274.274" transform="translate(-124.679 -163.941)" fill="#455a64"/>
              <path id="Trazado_873943" data-name="Trazado 873943" d="M414.4,350.752H333.826a.632.632,0,0,1-.632-.632v-2.092a.633.633,0,0,1,.632-.633H414.4a1.388,1.388,0,0,1,1.388,1.389v.58a1.388,1.388,0,0,1-1.388,1.388" transform="translate(-157.239 -163.941)" fill="#455a64"/>
              <path id="Trazado_873944" data-name="Trazado 873944" d="M414.4,371.38H333.826a.632.632,0,0,1-.632-.632v-2.092a.633.633,0,0,1,.632-.633H414.4a1.388,1.388,0,0,1,1.388,1.389v.58a1.388,1.388,0,0,1-1.388,1.388" transform="translate(-157.239 -173.676)" fill="#455a64"/>
              <path id="Trazado_873945" data-name="Trazado 873945" d="M415.529,361.288h-73.9a3.768,3.768,0,1,1,0-7.536h73.9a5.69,5.69,0,0,0,0,7.536" transform="translate(-159.44 -166.941)" fill="#f5f5f5"/>
              <g id="Grupo_1100058" data-name="Grupo 1100058" transform="translate(139.519 183.454)" opacity="0.3">
                <g id="Grupo_1100057" data-name="Grupo 1100057">
                  <g id="Grupo_1100056" data-name="Grupo 1100056" clip-path="url(#clip-path-9)">
                    <path id="Trazado_873946" data-name="Trazado 873946" d="M303.1,361.646H271.266a7.068,7.068,0,0,1-7.067-7.068,7.182,7.182,0,0,1,7.182-7.182h32.487c-7.322,3.125-6.775,10.61-.77,14.25" transform="translate(-264.198 -347.396)"/>
                  </g>
                </g>
              </g>
              <path id="Trazado_873947" data-name="Trazado 873947" d="M410.52,359.661c0,.064-14.556.116-32.508.116s-32.511-.052-32.511-.116,14.553-.116,32.511-.116,32.508.052,32.508.116" transform="translate(-163.047 -169.675)" fill="#263238"/>
              <path id="Trazado_873948" data-name="Trazado 873948" d="M423.189,363.5c0,.064-14.556.116-32.508.116s-32.511-.052-32.511-.116,14.553-.116,32.511-.116,32.508.052,32.508.116" transform="translate(-169.026 -171.487)" fill="#263238"/>
              <path id="Trazado_873949" data-name="Trazado 873949" d="M303.92,371.593c0,.064-6.813.116-15.217.116s-15.218-.052-15.218-.116,6.812-.116,15.218-.116,15.217.052,15.217.116" transform="translate(-129.062 -175.306)" fill="#263238"/>
              <path id="Trazado_873950" data-name="Trazado 873950" d="M303.92,350.471c0,.064-6.813.116-15.217.116s-15.218-.052-15.218-.116,6.812-.116,15.218-.116,15.217.052,15.217.116" transform="translate(-129.062 -165.338)" fill="#263238"/>
              <path id="Trazado_873951" data-name="Trazado 873951" d="M388,347.292c0,.064-24.994.116-55.82.116s-55.824-.052-55.824-.116,24.989-.116,55.824-.116,55.82.052,55.82.116" transform="translate(-130.416 -163.838)" fill="#263238"/>
              <path id="Trazado_873952" data-name="Trazado 873952" d="M402.886,323.25v7.74l2.683-1.72,2.993,1.72v-7.74Z" transform="translate(-190.128 -152.547)" fill="#c2e8e8"/>
            </g>
          </g>
          <g id="Grupo_1100062" data-name="Grupo 1100062">
            <g id="Grupo_1100061" data-name="Grupo 1100061" clip-path="url(#clip-path)">
              <path id="Trazado_873953" data-name="Trazado 873953" d="M440.517,72.6H416.57a9.175,9.175,0,0,0-.531,18.336l2.168,3.752,2.709-3.725h19.6a9.181,9.181,0,0,0,0-18.363" transform="translate(-192.253 -34.263)" fill="#fff"/>
              <path id="Trazado_873954" data-name="Trazado 873954" d="M440.409,72.5s.082,0,.244,0l.718.025a9.68,9.68,0,0,1,2.683.675,9.473,9.473,0,0,1,3.514,2.62,9.882,9.882,0,0,1,1.421,2.375,9.039,9.039,0,0,1,.671,3.036,9.217,9.217,0,0,1-2.325,6.627,9.44,9.44,0,0,1-3.24,2.358,9.876,9.876,0,0,1-4.19.768l-19.1.015.11-.056-2.708,3.725-.125.171-.106-.183-.883-1.528-1.285-2.224.111.068a10.215,10.215,0,0,1-2.684-.56,9.759,9.759,0,0,1-2.372-1.3,9.281,9.281,0,0,1-1.423-13.533,9.186,9.186,0,0,1,3.769-2.606c.177-.062.351-.133.528-.187l.539-.138a8.786,8.786,0,0,1,1.08-.2c.36-.049.722-.044,1.079-.068h1.05l7.715.017,11.135.043,3.018.025.784.013c.176,0,.267.014.267.014s-.09.009-.267.014l-.784.013-3.018.025-11.135.043-7.715.017-1.05,0c-.348.025-.7.022-1.052.07a8.515,8.515,0,0,0-1.053.194l-.525.136c-.173.054-.342.123-.514.184a8.955,8.955,0,0,0-3.664,2.547,9.034,9.034,0,0,0,1.4,13.152,9.469,9.469,0,0,0,2.3,1.257,9.974,9.974,0,0,0,2.606.543l.075.006.036.063,1.285,2.224.882,1.527-.23-.012,2.709-3.724.041-.057h.07l19.1.015a9.637,9.637,0,0,0,4.1-.737,9.229,9.229,0,0,0,3.171-2.29,9.033,9.033,0,0,0,2.3-6.474,8.89,8.89,0,0,0-.641-2.983,9.79,9.79,0,0,0-1.379-2.345,9.445,9.445,0,0,0-3.442-2.619,10.1,10.1,0,0,0-3.605-.792" transform="translate(-192.145 -34.162)" fill="#263238"/>
              <path id="Trazado_873955" data-name="Trazado 873955" d="M425.039,84.555l.859,1.74,1.92.279-1.389,1.354.328,1.912-1.717-.9-1.717.9.328-1.912-1.389-1.354,1.92-.279Z" transform="translate(-199.271 -39.903)" fill="#c2e8e8"/>
              <path id="Trazado_873956" data-name="Trazado 873956" d="M438.834,84.555l.859,1.74,1.92.279-1.389,1.354.328,1.912-1.717-.9-1.717.9.328-1.912-1.389-1.354,1.92-.279Z" transform="translate(-205.781 -39.903)" fill="#c2e8e8"/>
              <path id="Trazado_873957" data-name="Trazado 873957" d="M452.629,84.555l.859,1.74,1.92.279-1.389,1.354.328,1.912-1.717-.9-1.717.9.328-1.912-1.389-1.354,1.92-.279Z" transform="translate(-212.291 -39.903)" fill="#c2e8e8"/>
              <path id="Trazado_873958" data-name="Trazado 873958" d="M466.424,84.555l.859,1.74,1.92.279-1.389,1.354.328,1.912-1.717-.9-1.717.9.328-1.912-1.389-1.354,1.92-.279Z" transform="translate(-218.801 -39.903)" fill="#c2e8e8"/>
            </g>
          </g>
          <g id="Grupo_1100067" data-name="Grupo 1100067">
            <g id="Grupo_1100066" data-name="Grupo 1100066" clip-path="url(#clip-path)">
              <path id="Trazado_873959" data-name="Trazado 873959" d="M346.425,85.619s-2.4,8.97-2.606,15.316l-.069,2.114s5.293,4.4,9.733,4.666l3.721-9.151Z" transform="translate(-162.221 -40.405)" fill="#263238"/>
              <path id="Trazado_873960" data-name="Trazado 873960" d="M371.389,82.719c-1.012-4.375-1.4-9.466-5.038-12.319a13.268,13.268,0,0,0-9.2-2.563,12.146,12.146,0,0,0-5.063,1.681c-2.015,1.141-2.869,3.455-3.842,5.557-1.948,4.211-1.7,9.914-.382,11.5l17.6,9.293c3.514-1.829,5.715-2.557,6.277-7.241a17.163,17.163,0,0,0-.346-5.906" transform="translate(-163.672 -32.004)" fill="#263238"/>
              <path id="Trazado_873961" data-name="Trazado 873961" d="M367.26,76.334l-11.074-3.268c-3.568-.52-6.123,3.8-6.491,7.384a63.948,63.948,0,0,0-.394,11.864c.716,6.03,5.279,6.973,5.279,6.973,0-.02.01.09-.025,1.872l-.014,3.67a3.046,3.046,0,0,0,.872,2.484c1.633,2.116,4.61,2.4,8.12,1.1a5.061,5.061,0,0,0,3.605-4.329l1.925-25.537a2.109,2.109,0,0,0-1.8-2.212" transform="translate(-164.77 -34.461)" fill="#ae7461"/>
              <path id="Trazado_873962" data-name="Trazado 873962" d="M352.173,96.825a.769.769,0,0,0,.711.8.735.735,0,0,0,.819-.662.769.769,0,0,0-.71-.8.736.736,0,0,0-.82.662" transform="translate(-166.195 -45.379)" fill="#263238"/>
              <path id="Trazado_873963" data-name="Trazado 873963" d="M351.558,93.258c.091.1.691-.3,1.518-.269s1.416.472,1.51.374c.046-.043-.044-.228-.3-.43a2.117,2.117,0,0,0-1.2-.424,2.028,2.028,0,0,0-1.213.34c-.262.185-.355.363-.31.41" transform="translate(-165.9 -43.656)" fill="#263238"/>
              <path id="Trazado_873964" data-name="Trazado 873964" d="M365.942,97.05a.768.768,0,0,0,.71.8.735.735,0,0,0,.82-.662.769.769,0,0,0-.71-.8.736.736,0,0,0-.82.662" transform="translate(-172.693 -45.485)" fill="#263238"/>
              <path id="Trazado_873965" data-name="Trazado 873965" d="M366.964,93.443c.091.1.692-.3,1.518-.269s1.417.472,1.511.374c.045-.043-.043-.228-.3-.43a2.112,2.112,0,0,0-1.2-.424,2.027,2.027,0,0,0-1.212.34c-.261.185-.355.363-.311.41" transform="translate(-173.171 -43.743)" fill="#263238"/>
              <path id="Trazado_873966" data-name="Trazado 873966" d="M359.011,98.123a5.452,5.452,0,0,0-1.334-.3c-.21-.03-.408-.08-.438-.225a1.072,1.072,0,0,1,.166-.621l.688-1.584a27.729,27.729,0,0,0,1.568-4.151,27.64,27.64,0,0,0-1.9,4.015q-.346.835-.662,1.594a1.219,1.219,0,0,0-.142.824.53.53,0,0,0,.335.323,1.447,1.447,0,0,0,.357.064,5.374,5.374,0,0,0,1.361.055" transform="translate(-168.439 -43.061)" fill="#263238"/>
              <path id="Trazado_873967" data-name="Trazado 873967" d="M359.371,121.127a15.257,15.257,0,0,0,8.11-1.825s-2.149,4.115-8.125,3.318Z" transform="translate(-169.586 -56.3)" fill="#6f4439"/>
              <path id="Trazado_873968" data-name="Trazado 873968" d="M363.681,107.221a1.2,1.2,0,0,0-.976-.582,1.56,1.56,0,0,0-1.448.648.967.967,0,0,0-.091.7c.048.121.009.061.1.146a2.729,2.729,0,0,0,1.088.736,1.171,1.171,0,0,0,1.254-.407,1.2,1.2,0,0,0,.074-1.238" transform="translate(-170.427 -50.322)" fill="#6f4439"/>
              <path id="Trazado_873969" data-name="Trazado 873969" d="M363.277,105.6c-.134-.014-.176.883-.973,1.486s-1.747.46-1.76.586c-.015.056.2.184.608.213a2.233,2.233,0,0,0,1.467-.438,1.951,1.951,0,0,0,.759-1.249c.051-.373-.039-.6-.1-.6" transform="translate(-170.145 -49.834)" fill="#263238"/>
              <path id="Trazado_873970" data-name="Trazado 873970" d="M366.379,87.953c.059.232.892.205,1.847.416.96.191,1.712.55,1.859.362.067-.091-.049-.315-.343-.562a3.3,3.3,0,0,0-2.824-.593c-.369.109-.565.267-.54.377" transform="translate(-172.899 -41.28)" fill="#263238"/>
              <path id="Trazado_873971" data-name="Trazado 873971" d="M351.666,88.725c.187.163.791-.121,1.547-.24.753-.142,1.418-.078,1.538-.293.051-.1-.077-.276-.383-.411a2.357,2.357,0,0,0-1.3-.123,2.327,2.327,0,0,0-1.181.552c-.24.23-.3.434-.217.515" transform="translate(-165.94 -41.349)" fill="#263238"/>
              <path id="Trazado_873972" data-name="Trazado 873972" d="M362.374,71.881c-.01.043-.018.087-.028.13l.021.009c0-.046,0-.092.007-.139" transform="translate(-170.997 -33.922)" fill="#263238"/>
              <path id="Trazado_873973" data-name="Trazado 873973" d="M362.946,100.544c.169-1.572-.463-3.15-.279-4.72.194-1.664,1.272-3.09,1.715-4.706.709-2.589-.263-5.341-.619-8.016a6.35,6.35,0,0,1-3.9-2.25,17.59,17.59,0,0,1-2.637-4.843,8.106,8.106,0,0,0,1.631,4.658,2.187,2.187,0,0,1-1.868-.607,4.893,4.893,0,0,1-1.1-1.7,13.308,13.308,0,0,1-1.061-4.8,17.231,17.231,0,0,0,.783,7,2.988,2.988,0,0,0-1.3.05,1.43,1.43,0,0,1-1.24-.264,1.564,1.564,0,0,1-.34-.8,17.972,17.972,0,0,1-.2-6.1,18.589,18.589,0,0,0-1.375,3.38,6.55,6.55,0,0,0-.025,3.607.53.53,0,0,1-.745,0,1.262,1.262,0,0,1-.326-.753,9.281,9.281,0,0,1,.2-3.036,15.375,15.375,0,0,0-1.13,3.469,5.174,5.174,0,0,1-1.879,3.046,15.967,15.967,0,0,1,.15-4.6,13.876,13.876,0,0,1,1.348-3.651,10.844,10.844,0,0,1,2.43-3.382c1.766-1.547,2.5-.881,3.632-.292l.134.056c0-.027.005-.055.009-.083l.051-.24a16.919,16.919,0,0,1,8.909.417c2.126.693,2.321,5.27,2.84,3.1.314-1.316,2.02-.115,2.041-.077,2.507,4.523,5.165,11.7,5.287,23.033Z" transform="translate(-163.826 -33.298)" fill="#263238"/>
              <path id="Trazado_873974" data-name="Trazado 873974" d="M383.533,60.226a5.647,5.647,0,0,0-3.9-1.9,4.257,4.257,0,0,0-3.764,1.96,3.43,3.43,0,0,0,.464,4.1l1.853,1.482a5.073,5.073,0,0,0,4.207.408,3.658,3.658,0,0,0,2.375-3.337,4.3,4.3,0,0,0-1.236-2.718" transform="translate(-177.156 -27.525)" fill="#263238"/>
              <path id="Trazado_873975" data-name="Trazado 873975" d="M382.065,73.094c-.359.167-1.373-1.386-3.183-2.606-1.783-1.262-3.595-1.66-3.565-2.055.015-.18.525-.324,1.352-.239a6.922,6.922,0,0,1,5.141,3.551c.372.743.417,1.271.255,1.349" transform="translate(-177.117 -32.17)" fill="#455a64"/>
              <path id="Trazado_873976" data-name="Trazado 873976" d="M330.783,164.981l6.939-6.5,4.7,7.468c-.093.67-6.086,13.582-8.68,16.257-2.96,3.053-6.995,2.817-8.775-1.4-1.4-3.323-3.733-13.555-3.733-13.555Z" transform="translate(-151.596 -74.79)" fill="#c2e8e8"/>
              <path id="Trazado_873977" data-name="Trazado 873977" d="M344.26,132.827c-1.658.6-5.47,2.681-6.581,4.049a10.458,10.458,0,0,0-1.4,2.166c-.868,1.91-2.518,16.072-2.518,16.072l7.391,5.352,6.434-24.77-.411-3.928Z" transform="translate(-157.506 -62.183)" fill="#c2e8e8"/>
              <path id="Trazado_873978" data-name="Trazado 873978" d="M347.519,172.154l.465-3.658a118.913,118.913,0,0,1-1.948-12.194,34.084,34.084,0,0,1,1.839-15.557c.182-.538,5.008-10.534,5.008-10.534s1.014,3.079,5.087,2.351c5.679-1.016,7.748-4.094,7.748-4.094l7.338,1.586s2.859,11.482,3.28,15.286c.225,2.039-2.462,13.568-2.462,13.568l4.328,6.474c.129.318-1.88,9.165-2.273,9.531s-7.433,2-7.52,2.3S354.989,183.1,355,182.868s-6.415-7.857-6.415-7.857Z" transform="translate(-163.216 -60.626)" fill="#c2e8e8"/>
              <path id="Trazado_873979" data-name="Trazado 873979" d="M345.111,154.318a1.035,1.035,0,0,1-.017.268c-.024.2-.054.456-.09.759-.078.659-.19,1.613-.288,2.8a40.129,40.129,0,0,0,.173,9.234c.474,3.589,1.167,6.8,1.613,9.133.227,1.167.4,2.113.511,2.769l.117.757a.971.971,0,0,1,.022.267,1.022,1.022,0,0,1-.077-.257l-.168-.747c-.15-.69-.351-1.62-.6-2.75-.495-2.322-1.219-5.532-1.7-9.136a37.209,37.209,0,0,1-.093-9.288c.123-1.184.264-2.137.375-2.793.056-.328.105-.582.142-.753a.955.955,0,0,1,.072-.259" transform="translate(-162.468 -72.825)" fill="#263238"/>
              <path id="Trazado_873980" data-name="Trazado 873980" d="M377.981,206.034c1.315,2.233,4.32,10.779,5.487,15.143,5.329,19.917,9.838,46.7,11.335,52.159,2,7.273,6.464,23.729,8.738,34.688l-10.921,4.763s-14.3-38.542-18.206-48.013c-4.044-9.813-10.789-28.324-10.789-28.324l-3.9,73.422-10.462.323s-3.578-20.689-5-33.054-1.582-37.819-1.593-44.279c-.014-7.866,3.4-25.565,3.4-25.565s4.081,3.062,11.732,1.89c6.094-.934,18.728-5.621,18.728-5.621Z" transform="translate(-161.712 -96.066)" fill="#263238"/>
              <path id="Trazado_873981" data-name="Trazado 873981" d="M369.255,219.034a5.051,5.051,0,0,0,.061.843c.056.54.151,1.321.279,2.285.256,1.926.656,4.582,1.178,7.5s1.068,5.551,1.5,7.447c.214.948.4,1.713.53,2.24a5.032,5.032,0,0,0,.235.812,5.013,5.013,0,0,0-.131-.835c-.115-.579-.264-1.339-.445-2.257-.379-1.9-.894-4.537-1.416-7.454s-.951-5.563-1.256-7.481c-.148-.923-.271-1.688-.365-2.271a5.069,5.069,0,0,0-.166-.829" transform="translate(-174.254 -103.365)" fill="#455a64"/>
              <path id="Trazado_873982" data-name="Trazado 873982" d="M374.632,218.488c.015,0-.016-.132-.2-.213a1.335,1.335,0,0,0-.8-.026,1.6,1.6,0,0,0-.522.213.877.877,0,0,0-.357.58,1.339,1.339,0,0,0,.6,1.329,1.378,1.378,0,0,0,1.458.065.95.95,0,0,0,.4-.543,1.353,1.353,0,0,0,.039-.566,1.14,1.14,0,0,0-.352-.718c-.151-.125-.264-.134-.267-.121s.083.065.191.2a1.152,1.152,0,0,1,.236.662.921.921,0,0,1-.381.877,1.152,1.152,0,0,1-1.178-.08,1.109,1.109,0,0,1-.5-1.059.655.655,0,0,1,.241-.438,1.51,1.51,0,0,1,.44-.211,1.438,1.438,0,0,1,.712-.06c.164.038.218.127.239.114" transform="translate(-175.899 -102.973)" fill="#455a64"/>
              <path id="Trazado_873983" data-name="Trazado 873983" d="M363.657,254.093a10.216,10.216,0,0,0,1.265.868c.792.518,1.874,1.246,3.034,2.1s2.176,1.676,2.9,2.279a10.234,10.234,0,0,0,1.2.953,7.384,7.384,0,0,0-1.077-1.1,36.075,36.075,0,0,0-5.963-4.4,7.37,7.37,0,0,0-1.367-.7" transform="translate(-171.615 -119.909)" fill="#455a64"/>
              <path id="Trazado_873984" data-name="Trazado 873984" d="M413.819,326.272a1.449,1.449,0,0,0,.453.015c.29-.006.71-.038,1.226-.1a21.908,21.908,0,0,0,7.712-2.417c.457-.246.82-.46,1.061-.621s.372-.254.363-.27a16.14,16.14,0,0,0-1.511.72,27.531,27.531,0,0,1-7.652,2.4,16.33,16.33,0,0,0-1.652.271" transform="translate(-195.287 -152.372)" fill="#455a64"/>
              <path id="Trazado_873985" data-name="Trazado 873985" d="M417.177,324.425a4.109,4.109,0,0,0,1.071-.285c.648-.217,1.532-.553,2.484-.981s1.79-.867,2.382-1.209a4.114,4.114,0,0,0,.924-.613c-.04-.069-1.525.725-3.418,1.573s-3.468,1.439-3.443,1.515" transform="translate(-196.872 -151.642)" fill="#455a64"/>
              <path id="Trazado_873986" data-name="Trazado 873986" d="M344.883,391.064l-.055,10.9s-11.1,3.6-11.3,5.618l21.13.865.783-16.98Z" transform="translate(-157.395 -184.549)" fill="#263238"/>
              <path id="Trazado_873987" data-name="Trazado 873987" d="M366.424,410.438a.863.863,0,0,1,.556,1.009.83.83,0,0,1-1,.56.911.911,0,0,1-.583-1.072.861.861,0,0,1,1.1-.468" transform="translate(-172.42 -193.671)" fill="#e0e0e0"/>
              <path id="Trazado_873988" data-name="Trazado 873988" d="M354.65,422.281l.012-1.715-20.264-.189s-.958.371-.879,1.038Z" transform="translate(-157.39 -198.383)" fill="#455a64"/>
              <path id="Trazado_873989" data-name="Trazado 873989" d="M354.289,411.4c0,.1.513.171,1.007.524s.747.8.844.76c.1-.016-.033-.639-.638-1.056s-1.231-.324-1.212-.229" transform="translate(-167.194 -194.107)" fill="#fff"/>
              <path id="Trazado_873990" data-name="Trazado 873990" d="M350.02,413c-.027.1.412.293.745.744s.415.916.518.916c.1.02.192-.581-.232-1.134s-1.024-.624-1.031-.526" transform="translate(-165.179 -194.885)" fill="#fff"/>
              <path id="Trazado_873991" data-name="Trazado 873991" d="M346.758,416.343c.093.026.258-.484.016-1.06s-.715-.821-.762-.736c-.062.082.239.4.43.874s.214.908.316.922" transform="translate(-163.284 -195.624)" fill="#fff"/>
              <path id="Trazado_873992" data-name="Trazado 873992" d="M354.832,406.476c.04.1.519-.027,1.1.036s1.029.266,1.086.18-.364-.472-1.051-.538-1.183.238-1.135.322" transform="translate(-167.449 -191.666)" fill="#fff"/>
              <path id="Trazado_873993" data-name="Trazado 873993" d="M441.669,388.9l4.048,12.551,6.064,9a1.351,1.351,0,0,1-1.679,1.985c-2.535-1.162-11.839-5.481-12.084-6.416-.283-1.083-5.148-12.956-5.148-12.956Z" transform="translate(-204.277 -183.527)" fill="#263238"/>
              <path id="Trazado_873994" data-name="Trazado 873994" d="M455.676,426.929l-13.612-7.2.184.528a2.032,2.032,0,0,0,.889,1.087c1.114.654,4.23,2.393,11.266,5.655a1.35,1.35,0,0,0,1.273-.074" transform="translate(-208.617 -198.078)" fill="#455a64"/>
              <g id="Grupo_1100065" data-name="Grupo 1100065" transform="translate(233.626 216.713)" opacity="0.6">
                <g id="Grupo_1100064" data-name="Grupo 1100064">
                  <g id="Grupo_1100063" data-name="Grupo 1100063" clip-path="url(#clip-path-12)">
                    <path id="Trazado_873995" data-name="Trazado 873995" d="M443.381,410.41a.818.818,0,0,1,.562.935.787.787,0,0,1-.922.566.862.862,0,0,1-.59-.993.815.815,0,0,1,1.024-.482" transform="translate(-442.402 -410.376)" fill="#fff"/>
                  </g>
                </g>
              </g>
              <path id="Trazado_873996" data-name="Trazado 873996" d="M458.819,422.991a2.916,2.916,0,0,1,2.093-2.122c0-.034-.191-.077-.5-.016a2.155,2.155,0,0,0-1.619,1.641c-.057.307-.012.5.023.5" transform="translate(-216.5 -198.593)" fill="#fff"/>
              <path id="Trazado_873997" data-name="Trazado 873997" d="M461.627,426.118c.078.033.337-.511.917-.919a11.086,11.086,0,0,1,1.162-.58,1.5,1.5,0,0,0-1.331.345c-.659.47-.824,1.143-.747,1.154" transform="translate(-217.84 -200.36)" fill="#fff"/>
              <path id="Trazado_873998" data-name="Trazado 873998" d="M454.319,419.642a13.393,13.393,0,0,1,1.319-1.515,13.559,13.559,0,0,1,1.7-1.074,3.695,3.695,0,0,0-3.017,2.588" transform="translate(-214.395 -196.806)" fill="#fff"/>
              <path id="Trazado_873999" data-name="Trazado 873999" d="M451.39,413.737c.059.063.647-.464,1.531-.807s1.669-.376,1.668-.463a3.354,3.354,0,0,0-3.2,1.27" transform="translate(-213.016 -194.614)" fill="#fff"/>
              <path id="Trazado_874000" data-name="Trazado 874000" d="M448.963,406.864a4.288,4.288,0,0,1,3.368-1.043c.011-.033-.179-.142-.524-.208a2.945,2.945,0,0,0-2.529.783c-.247.249-.343.447-.315.468" transform="translate(-211.87 -191.395)" fill="#fff"/>
              <path id="Trazado_874001" data-name="Trazado 874001" d="M449.289,402.754a1.138,1.138,0,0,0-.147-.477,3.466,3.466,0,0,0-.8-1.1,1.531,1.531,0,0,0-.863-.476.543.543,0,0,0-.539.315.882.882,0,0,0,0,.631,1.908,1.908,0,0,0,2.161,1.119,2.215,2.215,0,0,0,1.674-1.809.77.77,0,0,0-.176-.616.532.532,0,0,0-.619-.083,1.9,1.9,0,0,0-.673.712,3.875,3.875,0,0,0-.513,1.264,1.179,1.179,0,0,0-.042.5,6.12,6.12,0,0,1,.726-1.648,1.757,1.757,0,0,1,.6-.606.283.283,0,0,1,.337.043.526.526,0,0,1,.091.411,1.977,1.977,0,0,1-1.469,1.552,1.658,1.658,0,0,1-1.848-.923.639.639,0,0,1-.018-.44.294.294,0,0,1,.294-.178,1.39,1.39,0,0,1,.739.39,5.128,5.128,0,0,1,1.086,1.427" transform="translate(-210.888 -188.856)" fill="#fff"/>
              <path id="Trazado_874002" data-name="Trazado 874002" d="M319.755,154.318l5.04,5.205.2,4.533L319.15,165.4h-.3l-.378-2.926-3.371-4.482Z" transform="translate(-148.702 -72.825)" fill="#ae7461"/>
              <path id="Trazado_874003" data-name="Trazado 874003" d="M266.281,101.02a30.714,30.714,0,1,1,7.686-26.977,30.485,30.485,0,0,1-7.686,26.977m-41.966-.081a28.655,28.655,0,1,0-8.5-15.3,28.437,28.437,0,0,0,8.5,15.3" transform="translate(-100.62 -23.293)" fill="#455a64"/>
              <path id="Trazado_874004" data-name="Trazado 874004" d="M266.281,101.02a30.714,30.714,0,1,1,7.686-26.977,30.485,30.485,0,0,1-7.686,26.977m-41.966-.081a28.655,28.655,0,1,0-8.5-15.3,28.437,28.437,0,0,0,8.5,15.3" transform="translate(-100.62 -23.293)" fill="#263238"/>
              <path id="Trazado_874005" data-name="Trazado 874005" d="M267.709,98.224a30.714,30.714,0,1,1,7.686-26.978,30.48,30.48,0,0,1-7.686,26.978m-41.966-.082a28.654,28.654,0,1,0-8.5-15.3,28.437,28.437,0,0,0,8.5,15.3" transform="translate(-101.294 -21.973)" fill="#455a64"/>
              <path id="Trazado_874006" data-name="Trazado 874006" d="M345.3,181.923l.976-.945c.871-.843.382-2.769-.531-3.7l-34.28-35.432-4.583,4.435,34.229,35.379a3.069,3.069,0,0,0,4.189.268" transform="translate(-144.824 -66.937)" fill="#455a64"/>
              <path id="Trazado_874007" data-name="Trazado 874007" d="M317.125,149.744a.806.806,0,0,0-.693-.185,1.356,1.356,0,0,0-.544.379,6.219,6.219,0,0,0-1.766,4.3,1.9,1.9,0,0,0,.786,1.772l.688-.4c.214-.276.851-.736.936-1.075.356-1.424-.155-1.364.738-3.833a.851.851,0,0,0-.144-.96" transform="translate(-148.239 -70.57)" fill="#ae7461"/>
              <path id="Trazado_874008" data-name="Trazado 874008" d="M318.369,152.678a3.384,3.384,0,0,1,.682-.9.99.99,0,0,1,.907-.271c.475.149.707.833.652,1.47a5.533,5.533,0,0,1-.591,1.81l-1.694,3.671-.328-.241a.464.464,0,0,1-.731-.161,1.947,1.947,0,0,1-.161-1,9.583,9.583,0,0,1,1.264-4.379" transform="translate(-149.645 -71.485)" fill="#ae7461"/>
              <path id="Trazado_874009" data-name="Trazado 874009" d="M320.338,158.078a8.594,8.594,0,0,1,1.7-2.272,2.086,2.086,0,0,1,.787-.6.74.74,0,0,1,.885.26,1.022,1.022,0,0,1-.12.9,42.08,42.08,0,0,1-2.915,5.119l-1.012-1.02c-.459-.828.29-1.528.68-2.39" transform="translate(-150.783 -73.223)" fill="#ae7461"/>
              <path id="Trazado_874010" data-name="Trazado 874010" d="M356.85,175.526l-.929-.2-4.864-4.145-2.662-2.236a1.622,1.622,0,0,0-.779-.359l-2.634-.439a1.5,1.5,0,0,0,.788,1.807l1.444.747,1.321,1.562-.169.338s-8.658,1.343-9.2,2a.9.9,0,0,0,.24,1.381,1.4,1.4,0,0,0,.661.06,1.572,1.572,0,0,0,.841,1.861s-.961,1.261.72,1.861a2.713,2.713,0,0,0,1.441,1.261,62.351,62.351,0,0,0,6.665.9l6.207.009,1.246.2Z" transform="translate(-159.948 -79.352)" fill="#ae7461"/>
              <path id="Trazado_874011" data-name="Trazado 874011" d="M340.7,182.9a6.908,6.908,0,0,0,2.395.129,9.581,9.581,0,0,0,2.369-.352,11.824,11.824,0,0,0-2.387.08,22.843,22.843,0,0,0-2.377.143" transform="translate(-160.783 -86.191)" fill="#6f4439"/>
              <path id="Trazado_874012" data-name="Trazado 874012" d="M342.672,186.564c0,.039.225.069.586.117s.86.116,1.424.151a12.332,12.332,0,0,0,1.436-.031,2.311,2.311,0,0,0,.591-.053c.011-.039-.219-.115-.589-.139s-.876-.013-1.423-.049-1.058-.074-1.427-.071-.6.039-.6.075" transform="translate(-161.712 -88.007)" fill="#6f4439"/>
              <path id="Trazado_874013" data-name="Trazado 874013" d="M343.71,190.043a10.253,10.253,0,0,0,2.335.313,5.562,5.562,0,0,1,1.6.248c.382.144.556.349.59.318.026-.013-.106-.283-.51-.493a4.222,4.222,0,0,0-1.657-.344,10.264,10.264,0,0,0-2.355-.042" transform="translate(-162.202 -89.662)" fill="#6f4439"/>
              <path id="Trazado_874014" data-name="Trazado 874014" d="M385.766,131.472s3.66.632,6.434,6.084c1.534,3.014,8.7,21.14,9.126,22.729,1.819,6.8-1.7,11.183-5.089,11.481-3.729.328-23.017-5.9-23.017-5.9l-.426-8.241,17.594,2.671-8.453-16.408s-.324-10.928,3.831-12.422" transform="translate(-175.927 -62.044)" fill="#c2e8e8"/>
              <path id="Trazado_874015" data-name="Trazado 874015" d="M411.7,190.568a3,3,0,0,0-.473-1.1,7.421,7.421,0,0,0-4.612-3.291,3,3,0,0,0-1.192-.09c0,.048.45.08,1.145.277a8.368,8.368,0,0,1,4.5,3.21c.412.594.59,1.012.634.993" transform="translate(-191.327 -87.806)" fill="#263238"/>
              <path id="Trazado_874016" data-name="Trazado 874016" d="M391.273,182.7a.289.289,0,0,1-.091-.012l-.264-.057c-.234-.048-.571-.149-1.013-.269-.879-.255-2.159-.646-3.771-1.16-3.222-1.028-7.775-2.532-13.127-4.342l-.081-.027,0-.086c-.124-2.371-.26-4.956-.4-7.652l-.009-.168.167.027,4.328.7,13.268,2.165-.13.18-5.844-11.44-1.638-3.252-.425-.866a2.021,2.021,0,0,1-.134-.3,2.089,2.089,0,0,1,.17.286l.459.849,1.7,3.221,5.931,11.394.114.219-.244-.04-13.272-2.139-4.328-.7.158-.142c.135,2.7.264,5.282.383,7.654l-.086-.114,13.093,4.436,3.747,1.228c.437.132.771.246,1,.307l.258.077a.317.317,0,0,1,.086.033" transform="translate(-175.794 -73.682)" fill="#263238"/>
              <path id="Trazado_874017" data-name="Trazado 874017" d="M394.414,132.1c.026.043-.5.345-1.227.973a10.433,10.433,0,0,0-3.5,6.449c-.13.954-.1,1.557-.149,1.559a1.309,1.309,0,0,1-.062-.421,6.741,6.741,0,0,1,.017-1.16,9.118,9.118,0,0,1,.317-1.7,9.721,9.721,0,0,1,2.007-3.693,9.1,9.1,0,0,1,1.249-1.188,6.653,6.653,0,0,1,.964-.645,1.28,1.28,0,0,1,.387-.178" transform="translate(-183.79 -62.339)" fill="#263238"/>
            </g>
          </g>
          <g id="Grupo_1100078" data-name="Grupo 1100078">
            <g id="Grupo_1100077" data-name="Grupo 1100077" clip-path="url(#clip-path)">
              <path id="Trazado_874018" data-name="Trazado 874018" d="M11.289,153.122s-3.888,21.629-3.7,23.651,1.221,5.24,3.567,5.792a10.537,10.537,0,0,0,4.5,0L12.845,156Z" transform="translate(-3.578 -72.261)" fill="#ffc09d"/>
              <path id="Trazado_874019" data-name="Trazado 874019" d="M35.846,88.842l-.272-22.35c-.249-5.558,2.778-10.335,8.341-10.429l.514.021a9.945,9.945,0,0,1,9.529,9.545c.189,4.818.336,10.145.2,12.719-.286,5.33-5.655,5.94-5.655,5.94s-.033,3.245-.03,4.811l-4.293,5.956v.318Z" transform="translate(-16.781 -26.457)" fill="#ffc09d"/>
              <path id="Trazado_874020" data-name="Trazado 874020" d="M53.933,107.421a12.892,12.892,0,0,1-6.859-2.34s1.505,4.079,6.847,3.819Z" transform="translate(-22.215 -49.589)" fill="#ff9b6c"/>
              <path id="Trazado_874021" data-name="Trazado 874021" d="M65.82,82.248a.762.762,0,0,1-.766.738.729.729,0,0,1-.756-.719.761.761,0,0,1,.765-.738.729.729,0,0,1,.757.719" transform="translate(-30.343 -38.475)" fill="#263238"/>
              <path id="Trazado_874022" data-name="Trazado 874022" d="M65.378,77.778c-.1.1-.658-.355-1.478-.387s-1.437.353-1.522.249c-.042-.046.062-.222.332-.4a2.089,2.089,0,0,1,1.224-.323,2.013,2.013,0,0,1,1.171.432c.244.2.322.387.274.43" transform="translate(-29.433 -36.297)" fill="#263238"/>
              <path id="Trazado_874023" data-name="Trazado 874023" d="M51.958,82.248a.762.762,0,0,1-.766.738.728.728,0,0,1-.757-.719.762.762,0,0,1,.766-.738.729.729,0,0,1,.757.719" transform="translate(-23.801 -38.475)" fill="#263238"/>
              <path id="Trazado_874024" data-name="Trazado 874024" d="M50.149,77.509c-.1.1-.659-.355-1.479-.387s-1.436.353-1.522.249c-.042-.046.061-.221.332-.4a2.094,2.094,0,0,1,1.224-.323,2.012,2.012,0,0,1,1.171.433c.243.2.322.387.274.429" transform="translate(-22.246 -36.17)" fill="#263238"/>
              <path id="Trazado_874025" data-name="Trazado 874025" d="M57.82,84.32a5.46,5.46,0,0,1,1.341-.185c.21-.013.41-.046.451-.187a1.068,1.068,0,0,0-.114-.626L58.945,81.7a27.376,27.376,0,0,1-1.218-4.226,27.459,27.459,0,0,1,1.555,4.118c.184.569.36,1.11.527,1.628a1.213,1.213,0,0,1,.075.826.525.525,0,0,1-.357.291,1.406,1.406,0,0,1-.358.035,5.309,5.309,0,0,1-1.349-.054" transform="translate(-27.237 -36.562)" fill="#263238"/>
              <path id="Trazado_874026" data-name="Trazado 874026" d="M50.19,72.6c-.12.2-.907-.048-1.874-.109-.967-.08-1.781.055-1.87-.164-.039-.1.133-.286.481-.441a3.264,3.264,0,0,1,2.852.208c.321.2.464.409.411.506" transform="translate(-21.916 -33.813)" fill="#263238"/>
              <path id="Trazado_874027" data-name="Trazado 874027" d="M65.38,73.19c-.175.182-.838-.029-1.641-.06-.8-.054-1.486.086-1.637-.113-.066-.1.046-.28.347-.448a2.586,2.586,0,0,1,1.342-.27,2.542,2.542,0,0,1,1.3.409c.279.2.367.393.289.482" transform="translate(-29.299 -34.117)" fill="#263238"/>
              <path id="Trazado_874028" data-name="Trazado 874028" d="M32.837,83.129c-.089-.043-3.62-1.235-3.654,2.416s3.639,2.932,3.646,2.827.008-5.243.008-5.243" transform="translate(-13.772 -39.126)" fill="#ffc09d"/>
              <path id="Trazado_874029" data-name="Trazado 874029" d="M32.554,88.028c-.016-.012-.064.044-.172.092a.639.639,0,0,1-.475.005,1.574,1.574,0,0,1-.715-1.419,2.1,2.1,0,0,1,.186-.909.736.736,0,0,1,.483-.484.324.324,0,0,1,.374.178c.048.1.024.175.043.182s.079-.061.051-.212a.4.4,0,0,0-.142-.23.479.479,0,0,0-.351-.1.894.894,0,0,0-.67.56,2.156,2.156,0,0,0-.23,1.016A1.65,1.65,0,0,0,31.85,88.3a.68.68,0,0,0,.582-.091c.114-.089.134-.171.121-.177" transform="translate(-14.599 -40.175)" fill="#ff9b6c"/>
              <path id="Trazado_874030" data-name="Trazado 874030" d="M52.927,91.4c.126-.008.131.831.851,1.423s1.612.5,1.62.613c.012.053-.2.164-.576.176a2.091,2.091,0,0,1-1.352-.464,1.817,1.817,0,0,1-.66-1.193c-.034-.351.059-.559.116-.554" transform="translate(-24.919 -43.132)" fill="#263238"/>
              <path id="Trazado_874031" data-name="Trazado 874031" d="M56.442,57.465a.864.864,0,0,0-.4-.51,2.662,2.662,0,0,0-1.363-.238,7.688,7.688,0,0,1-3.331-.877,3.809,3.809,0,0,0,.99-.679,2.293,2.293,0,0,0,.685-2.271.509.509,0,0,0-.283-.352c-.237-.076-.447.155-.614.338a1.973,1.973,0,0,1-1.866.765,3.233,3.233,0,0,1-1.383-.426c-.016-.016-.03-.035-.045-.051-.187-.2-.371-.388-.551-.571v0h0a12.081,12.081,0,0,0-3.739-2.838,12.4,12.4,0,0,0-6.616-.6,5.012,5.012,0,0,0-3.831,3.857,3.856,3.856,0,0,0-3.872-.408l-.032-.014A4.848,4.848,0,0,0,27.516,56c-.024.079-.044.158-.067.238a5.6,5.6,0,0,1-1.923,1.836c-.138.078-.3.174-.314.331s.112.286.239.379a2.823,2.823,0,0,0,1.139.488,6.316,6.316,0,0,1-.48.988c-.163.268-.356.59-.22.872a.6.6,0,0,0,.621.279,1.753,1.753,0,0,0,.662-.29l-.486,1.127a3.336,3.336,0,0,0,1.539-.085c.285,1.352.482,3.851.819,4.769a5.545,5.545,0,0,1,1.693.093c.63.217.376,1.333,1.2,1.025.42-.157,1.082-1.737,1.227-2.163a20.846,20.846,0,0,0,1-8.814,6.708,6.708,0,0,1,2.086-1.47l-.064.057c1.5-.5,3.193-.992,4.6-.276,1.092.557,1.725,1.7,2.536,2.623a7.644,7.644,0,0,0,5.609,2.808c.191,1.614.223,4.251.285,5.756l1.319-3v.012c.106-.175.194-.352.278-.529l.029-.054V63a9.417,9.417,0,0,1,.433-.851l.014.013a.94.94,0,0,0,1.387-1.241,2.129,2.129,0,0,0-.449-.462,1.486,1.486,0,0,0,1.412.383,1.166,1.166,0,0,0,.838-1.144.992.992,0,0,0-.582-.8,3.352,3.352,0,0,0,1.91-.4c.379-.21.751-.559.629-1.034" transform="translate(-11.897 -23.096)" fill="#263238"/>
              <path id="Trazado_874032" data-name="Trazado 874032" d="M38.107,57.854a4.611,4.611,0,0,0-.542.484,3.841,3.841,0,0,0-.84,1.765,6.767,6.767,0,0,0-.152,1.356c-.007.492.026,1.019.058,1.575a14.144,14.144,0,0,1,.02,1.753,6.244,6.244,0,0,1-.131.923,1.927,1.927,0,0,1-.388.892.806.806,0,0,1-.757.245,1.2,1.2,0,0,1-.674-.391,2.772,2.772,0,0,1-.5-1.365l.112.015a4.475,4.475,0,0,1-.663,1.112,1.59,1.59,0,0,1-1.046.554,1.024,1.024,0,0,1-.55-.1.89.89,0,0,1-.37-.373.919.919,0,0,1-.108-.475.665.665,0,0,1,.176-.413l.056.051a3.44,3.44,0,0,1-1.158.848,3.082,3.082,0,0,1-.357.134.6.6,0,0,1-.128.03.624.624,0,0,1,.121-.05c.08-.032.2-.078.346-.151a3.546,3.546,0,0,0,1.118-.861l.056.051a.686.686,0,0,0-.044.794.8.8,0,0,0,.335.33.93.93,0,0,0,.5.087,1.492,1.492,0,0,0,.971-.527,4.4,4.4,0,0,0,.638-1.088l.079-.171.033.186a2.676,2.676,0,0,0,.475,1.3,1.081,1.081,0,0,0,.6.35.68.68,0,0,0,.644-.208,1.822,1.822,0,0,0,.358-.835,6.149,6.149,0,0,0,.13-.9,14.382,14.382,0,0,0-.013-1.738c-.028-.556-.058-1.085-.046-1.584a6.71,6.71,0,0,1,.17-1.374A3.778,3.778,0,0,1,37.53,58.3a2.161,2.161,0,0,1,.577-.451" transform="translate(-14.236 -27.302)" fill="#455a64"/>
              <path id="Trazado_874033" data-name="Trazado 874033" d="M61.842,60.591s-.013.014-.043.036l-.135.1a1.649,1.649,0,0,1-.228.142,2.777,2.777,0,0,1-.327.168,4.743,4.743,0,0,1-2.292.385,6.049,6.049,0,0,1-3.211-1.227,10.49,10.49,0,0,1-2.734-3.225c-.381-.651-.691-1.318-1.033-1.935a7.078,7.078,0,0,0-1.176-1.64,3.65,3.65,0,0,0-1.529-.953,2.629,2.629,0,0,0-.811-.1,2.876,2.876,0,0,0-.745.134A3.088,3.088,0,0,0,45.845,53.9a3.722,3.722,0,0,0-.285.8.19.19,0,0,1,0-.057l.027-.164a2.693,2.693,0,0,1,.21-.6,3.04,3.04,0,0,1,.607-.8,3.126,3.126,0,0,1,1.142-.691,2.946,2.946,0,0,1,.769-.146,2.669,2.669,0,0,1,.843.1,3.721,3.721,0,0,1,1.581.97,7.1,7.1,0,0,1,1.2,1.662c.346.621.656,1.286,1.033,1.932A10.5,10.5,0,0,0,55.675,60.1a6.03,6.03,0,0,0,3.149,1.233,4.811,4.811,0,0,0,2.265-.343,7.448,7.448,0,0,0,.753-.4" transform="translate(-21.5 -24.652)" fill="#455a64"/>
              <path id="Trazado_874034" data-name="Trazado 874034" d="M72.3,63.618a.84.84,0,0,1-.193.131,4.121,4.121,0,0,1-.571.281,5.478,5.478,0,0,1-.9.285,5.823,5.823,0,0,1-2.307.048,5.528,5.528,0,0,1-.913-.248,4.141,4.141,0,0,1-.582-.258.881.881,0,0,1-.2-.123c.011-.021.3.134.809.3a6.324,6.324,0,0,0,.9.218,6.221,6.221,0,0,0,2.263-.047,6.305,6.305,0,0,0,.894-.255c.5-.184.784-.351.8-.331" transform="translate(-31.447 -30.022)" fill="#455a64"/>
              <path id="Trazado_874035" data-name="Trazado 874035" d="M40.394,384.765l-.528,12.07s12.091,4.59,12.211,6.83l-23.44-.183.05-18.84Z" transform="translate(-13.515 -181.518)" fill="#455a64"/>
              <path id="Trazado_874036" data-name="Trazado 874036" d="M35.575,405.667a.958.958,0,0,0-.671,1.087.921.921,0,0,0,1.072.674,1.009,1.009,0,0,0,.7-1.155.954.954,0,0,0-1.192-.577" transform="translate(-16.463 -191.423)" fill="#e0e0e0"/>
              <g id="Grupo_1100070" data-name="Grupo 1100070" transform="translate(15.123 220.065)" opacity="0.6">
                <g id="Grupo_1100069" data-name="Grupo 1100069">
                  <g id="Grupo_1100068" data-name="Grupo 1100068" clip-path="url(#clip-path-14)">
                    <path id="Trazado_874037" data-name="Trazado 874037" d="M28.638,418.622l.079-1.9,22.444.885s1.04.463.916,1.2Z" transform="translate(-28.638 -416.723)" fill="#fff"/>
                  </g>
                </g>
              </g>
              <path id="Trazado_874038" data-name="Trazado 874038" d="M48.7,407.414c0,.115-.577.162-1.143.525s-.87.842-.975.8c-.105-.023.071-.706.764-1.134s1.38-.293,1.355-.187" transform="translate(-21.971 -192.213)" fill="#263238"/>
              <path id="Trazado_874039" data-name="Trazado 874039" d="M53.863,409.43c.025.111-.472.3-.864.783s-.509.992-.623.986c-.108.017-.182-.654.318-1.243s1.168-.636,1.169-.527" transform="translate(-24.68 -193.194)" fill="#263238"/>
              <path id="Trazado_874040" data-name="Trazado 874040" d="M57.743,413.306c-.1.024-.259-.55.04-1.174s.835-.87.883-.774c.064.094-.286.428-.524.945s-.286.993-.4,1" transform="translate(-27.187 -194.117)" fill="#263238"/>
              <path id="Trazado_874041" data-name="Trazado 874041" d="M48.093,401.9c-.049.1-.573-.058-1.22-.019s-1.153.239-1.212.14c-.065-.083.429-.5,1.192-.538s1.3.327,1.24.417" transform="translate(-21.545 -189.465)" fill="#263238"/>
              <path id="Trazado_874042" data-name="Trazado 874042" d="M50.6,402.018a19.623,19.623,0,0,1,.032,2.907l-.093-.143c1.369.52,3.19,1.221,5.123,2.133a27.49,27.49,0,0,1,5.194,2.992,5.555,5.555,0,0,1,1.285,1.309c.244.376.211.664.173.65a1.635,1.635,0,0,0-.3-.563,6.53,6.53,0,0,0-1.327-1.174A34.036,34.036,0,0,0,55.5,407.27c-1.921-.906-3.722-1.639-5.065-2.214l-.1-.043.006-.1a19.6,19.6,0,0,1,.263-2.895" transform="translate(-23.752 -189.718)" fill="#263238"/>
              <path id="Trazado_874043" data-name="Trazado 874043" d="M22.2,225.5v10.939l4.315,34.932s-1.368,16.382-2.207,25.628c-.729,8.031.463,22.016.463,22.016H37.56l4.577-46.642,2.841-29.088,5.153-17.23Z" transform="translate(-10.475 -106.415)" fill="#263238"/>
              <path id="Trazado_874044" data-name="Trazado 874044" d="M51,378.343,47.65,389.95s10.673,7.3,10.263,9.51l-22.739-5.689,4.478-18.3Z" transform="translate(-16.599 -177.19)" fill="#455a64"/>
              <path id="Trazado_874045" data-name="Trazado 874045" d="M45.14,397.684a.956.956,0,0,0-.907.9.92.92,0,0,0,.883.907,1.01,1.01,0,0,0,.956-.957.955.955,0,0,0-1.023-.841" transform="translate(-20.874 -187.669)" fill="#e0e0e0"/>
              <g id="Grupo_1100073" data-name="Grupo 1100073" transform="translate(18.574 214.754)" opacity="0.6">
                <g id="Grupo_1100072" data-name="Grupo 1100072">
                  <g id="Grupo_1100071" data-name="Grupo 1100071" clip-path="url(#clip-path-15)">
                    <path id="Trazado_874046" data-name="Trazado 874046" d="M35.173,408.493l.523-1.827L57.3,412.8s.9.694.609,1.378Z" transform="translate(-35.173 -406.666)" fill="#fff"/>
                  </g>
                </g>
              </g>
              <path id="Trazado_874047" data-name="Trazado 874047" d="M57.42,402.631c-.031.11-.6.022-1.235.242-.642.2-1.043.615-1.135.545-.1-.047.235-.67,1.009-.923s1.41.04,1.36.136" transform="translate(-25.971 -189.894)" fill="#263238"/>
              <path id="Trazado_874048" data-name="Trazado 874048" d="M61.9,405.757c0,.114-.53.182-1.024.558s-.728.845-.838.812c-.109-.008-.023-.678.6-1.133s1.285-.344,1.261-.237" transform="translate(-28.315 -191.437)" fill="#263238"/>
              <path id="Trazado_874049" data-name="Trazado 874049" d="M64.758,410.36c-.107,0-.123-.6.315-1.132s1.017-.649,1.041-.544c.04.107-.379.349-.731.795s-.512.9-.625.881" transform="translate(-30.53 -192.847)" fill="#263238"/>
              <path id="Trazado_874050" data-name="Trazado 874050" d="M58.3,397.017c-.072.09-.543-.191-1.181-.305s-1.177-.039-1.211-.149.535-.388,1.285-.242,1.183.623,1.107.7" transform="translate(-26.384 -187.011)" fill="#263238"/>
              <path id="Trazado_874051" data-name="Trazado 874051" d="M61.425,226.91l.587,5.949-.709,43.2-10.125,34.7-2.453,8.416-13.069-2.461,10.073-89.8Z" transform="translate(-16.827 -107.082)" fill="#263238"/>
              <path id="Trazado_874052" data-name="Trazado 874052" d="M60.9,287.817s-.014.07-.05.205l-.165.6-.659,2.324c-.585,2.035-1.436,4.994-2.509,8.724l-8.813,30.393-.029.1-.1-.019L35.507,327.69l-.12-.022.023-.12c.667-3.521,1.364-7.2,2.074-10.953l5.841-30.753v.038l-4.881-30.64.005.016-2.183-3.971-.557-1.027c-.124-.231-.181-.353-.181-.353s.073.112.2.34l.579,1.014,2.225,3.947,0,.008,0,.009,5,30.621,0,.019,0,.019c-1.732,9.16-3.713,19.643-5.814,30.757-.712,3.752-1.409,7.432-2.077,10.953l-.1-.142,13.067,2.468-.131.081,8.9-30.369c1.1-3.722,1.972-6.675,2.572-8.706l.694-2.314.183-.595c.042-.133.068-.2.068-.2" transform="translate(-16.7 -117.934)" fill="#455a64"/>
              <path id="Trazado_874053" data-name="Trazado 874053" d="M73.651,233.618a4.107,4.107,0,0,1-.711,1.044,9.624,9.624,0,0,1-5.146,3.136,4.081,4.081,0,0,1-1.254.153,14.091,14.091,0,0,0,3.951-1.518,14.1,14.1,0,0,0,3.161-2.815" transform="translate(-31.401 -110.247)" fill="#455a64"/>
              <path id="Trazado_874054" data-name="Trazado 874054" d="M126.942,109.444a.552.552,0,0,0-.124-.762.271.271,0,0,0-.2-.058c-.261.043-.95.546-1.48.555s-1.432-.154-1.962.339a16.591,16.591,0,0,0-1.987,3.777c-.164.586-.739,5.734-.739,5.734Z" transform="translate(-56.845 -51.26)" fill="#ffc09d"/>
              <path id="Trazado_874055" data-name="Trazado 874055" d="M128.332,108.9c-.029.032-6.342,2.819-9.115,4.042a.942.942,0,0,0-.27,1.547.986.986,0,0,0,1.129.175l9.061-4.415.747-1.135Z" transform="translate(-55.994 -51.392)" fill="#263238"/>
              <path id="Trazado_874056" data-name="Trazado 874056" d="M121.441,114.555l2.013-1.483,2.658-3.857s1.088-.647,1.652-.239.748.878.486,1.405c0,0,1.5.359,1.609.861a5.744,5.744,0,0,1-.217,1.726,3.032,3.032,0,0,1,.011,1.437,2.31,2.31,0,0,0-.19.927,2.818,2.818,0,0,1,.554,2.408,14.587,14.587,0,0,1-3.11,4.636,20.389,20.389,0,0,1-2.715,1.544l-1.16,2.43-4.815-4.359Z" transform="translate(-55.789 -51.364)" fill="#ffc09d"/>
              <path id="Trazado_874057" data-name="Trazado 874057" d="M129.461,109.863a1.117,1.117,0,0,1-.12.208l-.359.546c-.306.459-.735,1.089-1.214,1.781l-.679.974a2.424,2.424,0,0,1-.345.4,1.676,1.676,0,0,1-.386.25,3.191,3.191,0,0,1-.624.21,1.086,1.086,0,0,1-.237.043,1.22,1.22,0,0,1,.227-.08,3.934,3.934,0,0,0,.6-.234c.519-.218.864-.943,1.36-1.615.479-.692.917-1.316,1.238-1.765l.384-.528a1.119,1.119,0,0,1,.152-.186" transform="translate(-59.224 -51.846)" fill="#ff9b6c"/>
              <path id="Trazado_874058" data-name="Trazado 874058" d="M134.174,114.792a29.487,29.487,0,0,1,1.638-2.985,29.495,29.495,0,0,1-1.638,2.985" transform="translate(-63.318 -52.763)" fill="#ff9b6c"/>
              <path id="Trazado_874059" data-name="Trazado 874059" d="M134.394,121.271c-.015,0-.023-.087-.072-.212a.888.888,0,0,0-.313-.4.907.907,0,0,0-.487-.155c-.135,0-.219.018-.223,0s.075-.058.221-.072a.835.835,0,0,1,.546.144.818.818,0,0,1,.323.462c.036.143.017.233.006.233" transform="translate(-62.905 -56.832)" fill="#ff9b6c"/>
              <path id="Trazado_874060" data-name="Trazado 874060" d="M138.353,122.832c-.01.011-.084-.045-.2-.136a2.41,2.41,0,0,0-.471-.307.9.9,0,0,0-.531-.087.548.548,0,0,0-.2.1c-.014,0,.022-.116.18-.168a.841.841,0,0,1,.591.065,1.665,1.665,0,0,1,.476.344c.105.106.162.179.153.188" transform="translate(-64.629 -57.671)" fill="#ff9b6c"/>
              <path id="Trazado_874061" data-name="Trazado 874061" d="M137.97,118.185a8.34,8.34,0,0,1,.966-1.526,8.342,8.342,0,0,1-.966,1.526" transform="translate(-65.109 -55.053)" fill="#ff9b6c"/>
              <path id="Trazado_874062" data-name="Trazado 874062" d="M129.784,119.163c-.015,0-.013-.083-.05-.2a.757.757,0,0,0-.272-.389.779.779,0,0,0-.454-.14c-.126,0-.2.026-.21.012s.067-.062.2-.081a.728.728,0,0,1,.517.129.713.713,0,0,1,.282.453c.022.137-.006.221-.017.219" transform="translate(-60.781 -55.854)" fill="#ff9b6c"/>
              <path id="Trazado_874063" data-name="Trazado 874063" d="M120.177,118.47c-.011-.013.087-.088.174-.256a.87.87,0,0,0,.047-.7.919.919,0,0,0-.5-.5c-.174-.072-.3-.07-.3-.087a.483.483,0,0,1,.321.021.916.916,0,0,1,.569.526.873.873,0,0,1-.079.769c-.111.173-.23.23-.234.221" transform="translate(-56.441 -55.175)" fill="#455a64"/>
              <path id="Trazado_874064" data-name="Trazado 874064" d="M79,136.259l7.636,6.536,9.374-14,6.1,3.6s-9.135,21.029-11.611,22.887-4.565,1.376-7.75-.095-14.531-12.894-14.531-12.894Z" transform="translate(-32.19 -60.778)" fill="#ffc09d"/>
              <path id="Trazado_874065" data-name="Trazado 874065" d="M103.321,161.037c-.075-.012.133-1.332.041-2.963s-.429-2.923-.356-2.942a10.051,10.051,0,0,1,.316,5.905" transform="translate(-48.605 -73.209)" fill="#ff9b6c"/>
              <path id="Trazado_874066" data-name="Trazado 874066" d="M19.219,122.494s6.492.094,6.586,8.185a135.532,135.532,0,0,1-1.653,18.915l-16.57-2.92s2.055-15.064,3.81-19.4c1.766-4.366,5.139-5.514,7.826-4.779" transform="translate(-3.579 -57.709)" fill="#c2e8e8"/>
              <path id="Trazado_874067" data-name="Trazado 874067" d="M26.728,111.65l-.206,1.319s-8.856,5.851-9.357,7.362c-.777,2.342.917,22.123,1.664,27.729s.9,17.962.9,17.962a17.161,17.161,0,0,0-1.366,4.8,5.917,5.917,0,0,0,1.366,3.851c9.5,3.1,21.11.72,33.668-2.143l-.118-3.56L49.172,130.3s1.2-10.052-3.707-12.961c-.539-.32-4.816-2.75-4.816-2.75Z" transform="translate(-8.006 -52.689)" fill="#c2e8e8"/>
              <g id="Grupo_1100076" data-name="Grupo 1100076" transform="translate(32.963 75.724)" opacity="0.3">
                <g id="Grupo_1100075" data-name="Grupo 1100075">
                  <g id="Grupo_1100074" data-name="Grupo 1100074" clip-path="url(#clip-path-16)">
                    <path id="Trazado_874068" data-name="Trazado 874068" d="M62.419,143.394a29.988,29.988,0,0,0,2.918,11.929,35.344,35.344,0,0,0,7.45,10.338L71.458,154.09Z" transform="translate(-62.419 -143.394)"/>
                  </g>
                </g>
              </g>
              <path id="Trazado_874069" data-name="Trazado 874069" d="M68.616,123.67c-1.553-1.256-4.44-1.939-6.088-.81a4.961,4.961,0,0,0-2,2.461c-1.406,4.112-.566,8.533.56,11.815s6.563,9.6,6.563,9.6l13.436-8.155s-8.993-10.9-9.931-12.026a23.732,23.732,0,0,0-2.542-2.887" transform="translate(-28.217 -57.709)" fill="#c2e8e8"/>
              <path id="Trazado_874070" data-name="Trazado 874070" d="M68.531,123.62a2.358,2.358,0,0,1,.284.227,9.9,9.9,0,0,1,.741.753c.623.685,1.443,1.755,2.552,3.057l8.981,10.806.082.1-.11.067-12.695,7.72-.735.446-.09.054-.067-.08c-1.5-1.776-2.9-3.561-4.152-5.357a28.645,28.645,0,0,1-1.714-2.731,11.386,11.386,0,0,1-.662-1.427c-.18-.485-.324-.972-.466-1.455a17.62,17.62,0,0,1-.127-10.524,4.3,4.3,0,0,1,4.468-3.085,6.2,6.2,0,0,1,1.391.238,6.6,6.6,0,0,1,1.778.785,3.188,3.188,0,0,1,.541.408c-.011.014-.185-.143-.567-.366a6.916,6.916,0,0,0-1.776-.736,6.175,6.175,0,0,0-1.372-.213,4.463,4.463,0,0,0-1.622.211,4.83,4.83,0,0,0-2.678,2.813,17.54,17.54,0,0,0,.181,10.406c.143.477.288.964.466,1.439a11.07,11.07,0,0,0,.651,1.394,28.632,28.632,0,0,0,1.705,2.706c1.249,1.784,2.646,3.566,4.141,5.333l-.157-.025.735-.446,12.707-7.7-.028.165-8.911-10.862c-1.094-1.315-1.9-2.4-2.5-3.1-.3-.349-.543-.606-.713-.773s-.265-.246-.259-.253" transform="translate(-28.132 -57.659)" fill="#263238"/>
              <path id="Trazado_874071" data-name="Trazado 874071" d="M17,136.569a.862.862,0,0,1,.039.234c.017.182.037.405.062.674.045.625.106,1.464.18,2.485.135,2.133.318,5.014.52,8.2.21,3.2.429,6.1.619,8.191.095,1.018.173,1.856.23,2.478.024.269.043.492.059.675a.872.872,0,0,1,0,.238.863.863,0,0,1-.053-.231c-.029-.181-.063-.4-.105-.67-.085-.582-.194-1.427-.308-2.473-.234-2.091-.482-4.988-.692-8.191s-.353-6.1-.448-8.205c-.042-1.022-.076-1.863-.1-2.488-.006-.27-.012-.494-.016-.678a.865.865,0,0,1,.011-.237" transform="translate(-8.019 -64.449)" fill="#263238"/>
              <path id="Trazado_874072" data-name="Trazado 874072" d="M50.583,225.494a1,1,0,0,1-.249.078l-.725.176c-.315.078-.7.158-1.155.243s-.966.188-1.539.274c-1.142.2-2.514.357-4.039.505-1.527.128-3.21.222-4.979.245s-3.455-.048-4.984-.15c-1.528-.123-2.9-.262-4.047-.448-.575-.079-1.09-.174-1.541-.26s-.842-.161-1.157-.238l-.726-.174a1.085,1.085,0,0,1-.249-.078,1.062,1.062,0,0,1,.26.029l.734.129c.317.063.707.128,1.161.2s.969.157,1.543.225c1.143.163,2.515.283,4.038.394,1.525.088,3.2.142,4.966.129s3.439-.109,4.962-.224c1.521-.136,2.89-.278,4.032-.451.573-.075,1.088-.162,1.541-.238s.843-.139,1.16-.2l.734-.13a1.093,1.093,0,0,1,.26-.03" transform="translate(-11.889 -106.413)" fill="#263238"/>
            </g>
          </g>
        </g>
      </g>
      <rect id="Rectángulo_401748" data-name="Rectángulo 401748" width="295" height="229" transform="translate(285 1467)" fill="none"/>
    </g>
  </g>
</svg>
